<?xml version="1.0" encoding="UTF-8" standalone="no"?><svg xmlns="http://www.w3.org/2000/svg" xmlns:xlink="http://www.w3.org/1999/xlink" contentStyleType="text/css" height="505px" preserveAspectRatio="none" style="width:700px;height:505px;background:#FFFFFF;" version="1.1" viewBox="0 0 700 505" width="700px" zoomAndPan="magnify"><defs/><g><rect fill="#FFFFFF" height="378.0421" style="stroke:#181818;stroke-width:1.0;" width="10" x="37.5" y="66.0679"/><rect fill="#FFFFFF" height="378.0421" style="stroke:#181818;stroke-width:1.0;" width="10" x="123" y="66.0679"/><rect fill="#FFFFFF" height="378.0421" style="stroke:#181818;stroke-width:1.0;" width="10" x="259" y="66.0679"/><rect fill="#FFFFFF" height="378.0421" style="stroke:#181818;stroke-width:1.0;" width="10" x="598" y="66.0679"/><rect fill="none" height="331.336" style="stroke:#000000;stroke-width:1.5;" width="624.5" x="70" y="104.7739"/><rect fill="none" height="221.218" style="stroke:#000000;stroke-width:1.5;" width="604.5" x="80" y="207.892"/><line style="stroke:#181818;stroke-width:0.5;stroke-dasharray:5.0,5.0;" x1="42" x2="42" y1="56.0679" y2="453.11"/><line style="stroke:#181818;stroke-width:0.5;stroke-dasharray:5.0,5.0;" x1="128" x2="128" y1="56.0679" y2="453.11"/><line style="stroke:#181818;stroke-width:0.5;stroke-dasharray:5.0,5.0;" x1="264" x2="264" y1="56.0679" y2="453.11"/><line style="stroke:#181818;stroke-width:0.5;stroke-dasharray:5.0,5.0;" x1="602.5" x2="602.5" y1="56.0679" y2="453.11"/><text fill="#000000" font-family="sans-serif" font-size="14" lengthAdjust="spacing" textLength="69" x="5" y="51.9659">:RootActor</text><ellipse cx="42.5" cy="21" fill="#E2E2F0" rx="12" ry="12" style="stroke:#181818;stroke-width:0.5;"/><polygon fill="#181818" points="38.5,9,44.5,4,42.5,9,44.5,14,38.5,9" style="stroke:#181818;stroke-width:1.0;"/><text fill="#000000" font-family="sans-serif" font-size="14" lengthAdjust="spacing" textLength="69" x="5" y="467.0759">:RootActor</text><ellipse cx="42.5" cy="487.1779" fill="#E2E2F0" rx="12" ry="12" style="stroke:#181818;stroke-width:0.5;"/><polygon fill="#181818" points="38.5,475.1779,44.5,470.1779,42.5,475.1779,44.5,480.1779,38.5,475.1779" style="stroke:#181818;stroke-width:1.0;"/><text fill="#000000" font-family="sans-serif" font-size="14" lengthAdjust="spacing" textLength="70" x="90" y="51.9659">:ViewActor</text><ellipse cx="128" cy="21" fill="#E2E2F0" rx="12" ry="12" style="stroke:#181818;stroke-width:0.5;"/><polygon fill="#181818" points="124,9,130,4,128,9,130,14,124,9" style="stroke:#181818;stroke-width:1.0;"/><text fill="#000000" font-family="sans-serif" font-size="14" lengthAdjust="spacing" textLength="70" x="90" y="467.0759">:ViewActor</text><ellipse cx="128" cy="487.1779" fill="#E2E2F0" rx="12" ry="12" style="stroke:#181818;stroke-width:0.5;"/><polygon fill="#181818" points="124,475.1779,130,470.1779,128,475.1779,130,480.1779,124,475.1779" style="stroke:#181818;stroke-width:1.0;"/><text fill="#000000" font-family="sans-serif" font-size="14" lengthAdjust="spacing" textLength="106" x="208" y="51.9659">:ControllerActor</text><ellipse cx="264" cy="21" fill="#E2E2F0" rx="12" ry="12" style="stroke:#181818;stroke-width:0.5;"/><polygon fill="#181818" points="260,9,266,4,264,9,266,14,260,9" style="stroke:#181818;stroke-width:1.0;"/><text fill="#000000" font-family="sans-serif" font-size="14" lengthAdjust="spacing" textLength="106" x="208" y="467.0759">:ControllerActor</text><ellipse cx="264" cy="487.1779" fill="#E2E2F0" rx="12" ry="12" style="stroke:#181818;stroke-width:0.5;"/><polygon fill="#181818" points="260,475.1779,266,470.1779,264,475.1779,266,480.1779,260,475.1779" style="stroke:#181818;stroke-width:1.0;"/><text fill="#000000" font-family="sans-serif" font-size="14" lengthAdjust="spacing" textLength="137" x="531.5" y="51.9659">:EventRecorderActor</text><ellipse cx="603" cy="21" fill="#E2E2F0" rx="12" ry="12" style="stroke:#181818;stroke-width:0.5;"/><polygon fill="#181818" points="599,9,605,4,603,9,605,14,599,9" style="stroke:#181818;stroke-width:1.0;"/><text fill="#000000" font-family="sans-serif" font-size="14" lengthAdjust="spacing" textLength="137" x="531.5" y="467.0759">:EventRecorderActor</text><ellipse cx="603" cy="487.1779" fill="#E2E2F0" rx="12" ry="12" style="stroke:#181818;stroke-width:0.5;"/><polygon fill="#181818" points="599,475.1779,605,470.1779,603,475.1779,605,480.1779,599,475.1779" style="stroke:#181818;stroke-width:1.0;"/><rect fill="#FFFFFF" height="378.0421" style="stroke:#181818;stroke-width:1.0;" width="10" x="37.5" y="66.0679"/><rect fill="#FFFFFF" height="378.0421" style="stroke:#181818;stroke-width:1.0;" width="10" x="123" y="66.0679"/><rect fill="#FFFFFF" height="378.0421" style="stroke:#181818;stroke-width:1.0;" width="10" x="259" y="66.0679"/><rect fill="#FFFFFF" height="378.0421" style="stroke:#181818;stroke-width:1.0;" width="10" x="598" y="66.0679"/><polygon fill="#181818" points="247,85.7739,257,89.7739,247,93.7739,251,89.7739" style="stroke:#181818;stroke-width:1.0;"/><line style="stroke:#181818;stroke-width:1.0;stroke-dasharray:2.0,2.0;" x1="47.5" x2="253" y1="89.7739" y2="89.7739"/><text fill="#000000" font-family="sans-serif" font-size="13" font-weight="bold" lengthAdjust="spacing" textLength="7" x="54.5" y="83.9649">1</text><text fill="#000000" font-family="sans-serif" font-size="13" lengthAdjust="spacing" textLength="133" x="65.5" y="83.9649">SetView(viewActorRef)</text><path d="M70,104.7739 L235,104.7739 L235,114.4799 L225,124.4799 L70,124.4799 L70,104.7739 " fill="#EEEEEE" style="stroke:#000000;stroke-width:1.5;"/><rect fill="none" height="331.336" style="stroke:#000000;stroke-width:1.5;" width="624.5" x="70" y="104.7739"/><text fill="#000000" font-family="sans-serif" font-size="13" font-weight="bold" lengthAdjust="spacing" textLength="120" x="85" y="119.6709">Every X milliseconds</text><line style="stroke:#181818;stroke-width:1.0;stroke-dasharray:2.0,2.0;" x1="269" x2="311" y1="148.186" y2="148.186"/><line style="stroke:#181818;stroke-width:1.0;stroke-dasharray:2.0,2.0;" x1="311" x2="311" y1="148.186" y2="161.186"/><line style="stroke:#181818;stroke-width:1.0;stroke-dasharray:2.0,2.0;" x1="270" x2="311" y1="161.186" y2="161.186"/><polygon fill="#181818" points="280,157.186,270,161.186,280,165.186,276,161.186" style="stroke:#181818;stroke-width:1.0;"/><text fill="#000000" font-family="sans-serif" font-size="13" font-weight="bold" lengthAdjust="spacing" textLength="7" x="276" y="142.377">2</text><text fill="#000000" font-family="sans-serif" font-size="13" lengthAdjust="spacing" textLength="31" x="287" y="142.377">Tick()</text><polygon fill="#181818" points="586,188.892,596,192.892,586,196.892,590,192.892" style="stroke:#181818;stroke-width:1.0;"/><line style="stroke:#181818;stroke-width:1.0;stroke-dasharray:2.0,2.0;" x1="269" x2="592" y1="192.892" y2="192.892"/><text fill="#000000" font-family="sans-serif" font-size="13" font-weight="bold" lengthAdjust="spacing" textLength="7" x="276" y="187.083">3</text><text fill="#000000" font-family="sans-serif" font-size="13" lengthAdjust="spacing" textLength="126" x="287" y="187.083">AskRecordedEvents()</text><path d="M80,207.892 L140,207.892 L140,217.598 L130,227.598 L80,227.598 L80,207.892 " fill="#EEEEEE" style="stroke:#000000;stroke-width:1.5;"/><rect fill="none" height="221.218" style="stroke:#000000;stroke-width:1.5;" width="604.5" x="80" y="207.892"/><text fill="#000000" font-family="sans-serif" font-size="13" font-weight="bold" lengthAdjust="spacing" textLength="15" x="95" y="222.789">alt</text><text fill="#000000" font-family="sans-serif" font-size="11" font-weight="bold" lengthAdjust="spacing" textLength="85" x="155" y="221.6509">[successful case]</text><polygon fill="#181818" points="280,247.304,270,251.304,280,255.304,276,251.304" style="stroke:#181818;stroke-width:1.0;"/><line style="stroke:#181818;stroke-width:1.0;stroke-dasharray:2.0,2.0;" x1="274" x2="597" y1="251.304" y2="251.304"/><text fill="#000000" font-family="sans-serif" font-size="13" font-weight="bold" lengthAdjust="spacing" textLength="7" x="286" y="245.495">4</text><text fill="#000000" font-family="sans-serif" font-size="13" lengthAdjust="spacing" textLength="257" x="297" y="245.495">Success(RecordedEventsResponse(events))</text><line style="stroke:#181818;stroke-width:1.0;stroke-dasharray:2.0,2.0;" x1="269" x2="311" y1="283.01" y2="283.01"/><line style="stroke:#181818;stroke-width:1.0;stroke-dasharray:2.0,2.0;" x1="311" x2="311" y1="283.01" y2="296.01"/><line style="stroke:#181818;stroke-width:1.0;stroke-dasharray:2.0,2.0;" x1="270" x2="311" y1="296.01" y2="296.01"/><polygon fill="#181818" points="280,292.01,270,296.01,280,300.01,276,296.01" style="stroke:#181818;stroke-width:1.0;"/><text fill="#000000" font-family="sans-serif" font-size="13" font-weight="bold" lengthAdjust="spacing" textLength="7" x="276" y="277.201">5</text><text fill="#000000" font-family="sans-serif" font-size="13" lengthAdjust="spacing" textLength="304" x="287" y="277.201">RecordedEventsAdaptedResponse(Option(events))</text><polygon fill="#181818" points="144,323.716,134,327.716,144,331.716,140,327.716" style="stroke:#181818;stroke-width:1.0;"/><line style="stroke:#181818;stroke-width:1.0;stroke-dasharray:2.0,2.0;" x1="138" x2="258" y1="327.716" y2="327.716"/><text fill="#000000" font-family="sans-serif" font-size="13" font-weight="bold" lengthAdjust="spacing" textLength="7" x="150" y="321.907">6</text><text fill="#000000" font-family="sans-serif" font-size="13" lengthAdjust="spacing" textLength="91" x="161" y="321.907">Display(events)</text><line style="stroke:#000000;stroke-width:1.0;stroke-dasharray:2.0,2.0;" x1="80" x2="684.5" y1="336.716" y2="336.716"/><text fill="#000000" font-family="sans-serif" font-size="11" font-weight="bold" lengthAdjust="spacing" textLength="67" x="85" y="348.475">[failure case]</text><polygon fill="#181818" points="280,372.404,270,376.404,280,380.404,276,376.404" style="stroke:#181818;stroke-width:1.0;"/><line style="stroke:#181818;stroke-width:1.0;stroke-dasharray:2.0,2.0;" x1="274" x2="597" y1="376.404" y2="376.404"/><text fill="#000000" font-family="sans-serif" font-size="13" font-weight="bold" lengthAdjust="spacing" textLength="7" x="286" y="370.595">7</text><text fill="#000000" font-family="sans-serif" font-size="13" lengthAdjust="spacing" textLength="48" x="297" y="370.595">Failure()</text><line style="stroke:#181818;stroke-width:1.0;stroke-dasharray:2.0,2.0;" x1="269" x2="311" y1="408.11" y2="408.11"/><line style="stroke:#181818;stroke-width:1.0;stroke-dasharray:2.0,2.0;" x1="311" x2="311" y1="408.11" y2="421.11"/><line style="stroke:#181818;stroke-width:1.0;stroke-dasharray:2.0,2.0;" x1="270" x2="311" y1="421.11" y2="421.11"/><polygon fill="#181818" points="280,417.11,270,421.11,280,425.11,276,421.11" style="stroke:#181818;stroke-width:1.0;"/><text fill="#000000" font-family="sans-serif" font-size="13" font-weight="bold" lengthAdjust="spacing" textLength="7" x="276" y="402.301">8</text><text fill="#000000" font-family="sans-serif" font-size="13" lengthAdjust="spacing" textLength="298" x="287" y="402.301">RecordedEventsAdaptedResponse(Option.empty)</text><!--MD5=[4f9660d7e04c2f7c84578a3eb6cbacc9]
@startuml
autonumber

control ":RootActor" as root
control ":ViewActor" as view
control ":ControllerActor" as controller
control ":EventRecorderActor" as eventRecorder

activate root
activate controller
activate view
activate eventRecorder

root - -> controller: SetView(viewActorRef)

group Every X milliseconds
    controller - -> controller: Tick()
    controller - -> eventRecorder: AskRecordedEvents()
    alt successful case
        eventRecorder - -> controller: Success(RecordedEventsResponse(events))
        controller - -> controller: RecordedEventsAdaptedResponse(Option(events))
        controller - -> view: Display(events)
    else failure case
        eventRecorder - -> controller: Failure()
        controller - -> controller: RecordedEventsAdaptedResponse(Option.empty)
    end
end


@enduml

PlantUML version 1.2022.12(Sun Oct 23 20:12:26 CEST 2022)
(GPL source distribution)
Java Runtime: OpenJDK Runtime Environment
JVM: OpenJDK 64-Bit Server VM
Default Encoding: UTF-8
Language: en
Country: US
--></g></svg>