<?xml version="1.0" encoding="UTF-8" standalone="no"?><svg xmlns="http://www.w3.org/2000/svg" xmlns:xlink="http://www.w3.org/1999/xlink" contentStyleType="text/css" height="543px" preserveAspectRatio="none" style="width:796px;height:543px;background:#FFFFFF;" version="1.1" viewBox="0 0 796 543" width="796px" zoomAndPan="magnify"><defs/><g><rect fill="#FFFFFF" height="421.7266" style="stroke:#181818;stroke-width:1.0;" width="10" x="41" y="63.2969"/><rect fill="#FFFFFF" height="270.0625" style="stroke:#181818;stroke-width:1.0;" width="10" x="254" y="214.9609"/><rect fill="#FFFFFF" height="261.0625" style="stroke:#181818;stroke-width:1.0;" width="10" x="365.5" y="185.8281"/><rect fill="#FFFFFF" height="319.3281" style="stroke:#181818;stroke-width:1.0;" width="10" x="529.5" y="156.6953"/><rect fill="#FFFFFF" height="348.4609" style="stroke:#181818;stroke-width:1.0;" width="10" x="706.5" y="127.5625"/><line style="stroke:#181818;stroke-width:0.5;stroke-dasharray:5.0,5.0;" x1="46" x2="46" y1="53.2969" y2="494.0234"/><line style="stroke:#181818;stroke-width:0.5;stroke-dasharray:5.0,5.0;" x1="258.5" x2="258.5" y1="53.2969" y2="494.0234"/><line style="stroke:#181818;stroke-width:0.5;stroke-dasharray:5.0,5.0;" x1="370.5" x2="370.5" y1="53.2969" y2="494.0234"/><line style="stroke:#181818;stroke-width:0.5;stroke-dasharray:5.0,5.0;" x1="534.5" x2="534.5" y1="53.2969" y2="494.0234"/><line style="stroke:#181818;stroke-width:0.5;stroke-dasharray:5.0,5.0;" x1="711.5" x2="711.5" y1="53.2969" y2="494.0234"/><text fill="#000000" font-family="sans-serif" font-size="14" lengthAdjust="spacing" textLength="76" x="5" y="49.9951">:RootActor</text><ellipse cx="46" cy="21" fill="#E2E2F0" rx="12" ry="12" style="stroke:#181818;stroke-width:0.5;"/><polygon fill="#181818" points="42,9,48,4,46,9,48,14,42,9" style="stroke:#181818;stroke-width:1.0;"/><text fill="#000000" font-family="sans-serif" font-size="14" lengthAdjust="spacing" textLength="76" x="5" y="506.0186">:RootActor</text><ellipse cx="46" cy="525.3203" fill="#E2E2F0" rx="12" ry="12" style="stroke:#181818;stroke-width:0.5;"/><polygon fill="#181818" points="42,513.3203,48,508.3203,46,513.3203,48,518.3203,42,513.3203" style="stroke:#181818;stroke-width:1.0;"/><text fill="#000000" font-family="sans-serif" font-size="14" lengthAdjust="spacing" textLength="77" x="217.5" y="49.9951">:ViewActor</text><ellipse cx="259" cy="21" fill="#E2E2F0" rx="12" ry="12" style="stroke:#181818;stroke-width:0.5;"/><polygon fill="#181818" points="255,9,261,4,259,9,261,14,255,9" style="stroke:#181818;stroke-width:1.0;"/><text fill="#000000" font-family="sans-serif" font-size="14" lengthAdjust="spacing" textLength="77" x="217.5" y="506.0186">:ViewActor</text><ellipse cx="259" cy="525.3203" fill="#E2E2F0" rx="12" ry="12" style="stroke:#181818;stroke-width:0.5;"/><polygon fill="#181818" points="255,513.3203,261,508.3203,259,513.3203,261,518.3203,255,513.3203" style="stroke:#181818;stroke-width:1.0;"/><text fill="#000000" font-family="sans-serif" font-size="14" lengthAdjust="spacing" textLength="114" x="310.5" y="49.9951">:ControllerActor</text><ellipse cx="370.5" cy="21" fill="#E2E2F0" rx="12" ry="12" style="stroke:#181818;stroke-width:0.5;"/><polygon fill="#181818" points="366.5,9,372.5,4,370.5,9,372.5,14,366.5,9" style="stroke:#181818;stroke-width:1.0;"/><text fill="#000000" font-family="sans-serif" font-size="14" lengthAdjust="spacing" textLength="114" x="310.5" y="506.0186">:ControllerActor</text><ellipse cx="370.5" cy="525.3203" fill="#E2E2F0" rx="12" ry="12" style="stroke:#181818;stroke-width:0.5;"/><polygon fill="#181818" points="366.5,513.3203,372.5,508.3203,370.5,513.3203,372.5,518.3203,366.5,513.3203" style="stroke:#181818;stroke-width:1.0;"/><text fill="#000000" font-family="sans-serif" font-size="14" lengthAdjust="spacing" textLength="182" x="440.5" y="49.9951">:SimulationManagerActor</text><ellipse cx="534.5" cy="21" fill="#E2E2F0" rx="12" ry="12" style="stroke:#181818;stroke-width:0.5;"/><polygon fill="#181818" points="530.5,9,536.5,4,534.5,9,536.5,14,530.5,9" style="stroke:#181818;stroke-width:1.0;"/><text fill="#000000" font-family="sans-serif" font-size="14" lengthAdjust="spacing" textLength="182" x="440.5" y="506.0186">:SimulationManagerActor</text><ellipse cx="534.5" cy="525.3203" fill="#E2E2F0" rx="12" ry="12" style="stroke:#181818;stroke-width:0.5;"/><polygon fill="#181818" points="530.5,513.3203,536.5,508.3203,534.5,513.3203,536.5,518.3203,530.5,513.3203" style="stroke:#181818;stroke-width:1.0;"/><text fill="#000000" font-family="sans-serif" font-size="14" lengthAdjust="spacing" textLength="140" x="638.5" y="49.9951">:CelestialBodyActor</text><ellipse cx="711.5" cy="21" fill="#E2E2F0" rx="12" ry="12" style="stroke:#181818;stroke-width:0.5;"/><polygon fill="#181818" points="707.5,9,713.5,4,711.5,9,713.5,14,707.5,9" style="stroke:#181818;stroke-width:1.0;"/><text fill="#000000" font-family="sans-serif" font-size="14" lengthAdjust="spacing" textLength="140" x="638.5" y="506.0186">:CelestialBodyActor</text><ellipse cx="711.5" cy="525.3203" fill="#E2E2F0" rx="12" ry="12" style="stroke:#181818;stroke-width:0.5;"/><polygon fill="#181818" points="707.5,513.3203,713.5,508.3203,711.5,513.3203,713.5,518.3203,707.5,513.3203" style="stroke:#181818;stroke-width:1.0;"/><rect fill="#FFFFFF" height="421.7266" style="stroke:#181818;stroke-width:1.0;" width="10" x="41" y="63.2969"/><rect fill="#FFFFFF" height="270.0625" style="stroke:#181818;stroke-width:1.0;" width="10" x="254" y="214.9609"/><rect fill="#FFFFFF" height="261.0625" style="stroke:#181818;stroke-width:1.0;" width="10" x="365.5" y="185.8281"/><rect fill="#FFFFFF" height="319.3281" style="stroke:#181818;stroke-width:1.0;" width="10" x="529.5" y="156.6953"/><rect fill="#FFFFFF" height="348.4609" style="stroke:#181818;stroke-width:1.0;" width="10" x="706.5" y="127.5625"/><rect fill="#EEEEEE" height="3" style="stroke:#EEEEEE;stroke-width:1.0;" width="789.5" x="0" y="83.8633"/><line style="stroke:#000000;stroke-width:1.0;" x1="0" x2="789.5" y1="83.8633" y2="83.8633"/><line style="stroke:#000000;stroke-width:1.0;" x1="0" x2="789.5" y1="86.8633" y2="86.8633"/><rect fill="#EEEEEE" height="23.1328" style="stroke:#000000;stroke-width:2.0;" width="118" x="335.75" y="73.2969"/><text fill="#000000" font-family="sans-serif" font-size="13" font-weight="bold" lengthAdjust="spacing" textLength="99" x="341.75" y="89.3638">Actors spawn</text><polygon fill="#181818" points="694.5,123.5625,704.5,127.5625,694.5,131.5625,698.5,127.5625" style="stroke:#181818;stroke-width:1.0;"/><line style="stroke:#181818;stroke-width:1.0;stroke-dasharray:2.0,2.0;" x1="51" x2="700.5" y1="127.5625" y2="127.5625"/><text fill="#000000" font-family="sans-serif" font-size="13" font-weight="bold" lengthAdjust="spacing" textLength="9" x="58" y="122.4966">1</text><text fill="#000000" font-family="sans-serif" font-size="13" lengthAdjust="spacing" textLength="53" x="71" y="122.4966">Spawn()</text><polygon fill="#181818" points="517.5,152.6953,527.5,156.6953,517.5,160.6953,521.5,156.6953" style="stroke:#181818;stroke-width:1.0;"/><line style="stroke:#181818;stroke-width:1.0;stroke-dasharray:2.0,2.0;" x1="51" x2="523.5" y1="156.6953" y2="156.6953"/><text fill="#000000" font-family="sans-serif" font-size="13" font-weight="bold" lengthAdjust="spacing" textLength="9" x="58" y="151.6294">2</text><text fill="#000000" font-family="sans-serif" font-size="13" lengthAdjust="spacing" textLength="197" x="71" y="151.6294">Spawn(celestialBodyActorRef)</text><polygon fill="#181818" points="353.5,181.8281,363.5,185.8281,353.5,189.8281,357.5,185.8281" style="stroke:#181818;stroke-width:1.0;"/><line style="stroke:#181818;stroke-width:1.0;stroke-dasharray:2.0,2.0;" x1="51" x2="359.5" y1="185.8281" y2="185.8281"/><text fill="#000000" font-family="sans-serif" font-size="13" font-weight="bold" lengthAdjust="spacing" textLength="9" x="58" y="180.7622">3</text><text fill="#000000" font-family="sans-serif" font-size="13" lengthAdjust="spacing" textLength="234" x="71" y="180.7622">Spawn(simulationManagerActorRef)</text><polygon fill="#181818" points="242,210.9609,252,214.9609,242,218.9609,246,214.9609" style="stroke:#181818;stroke-width:1.0;"/><line style="stroke:#181818;stroke-width:1.0;stroke-dasharray:2.0,2.0;" x1="51" x2="248" y1="214.9609" y2="214.9609"/><text fill="#000000" font-family="sans-serif" font-size="13" font-weight="bold" lengthAdjust="spacing" textLength="9" x="58" y="209.895">4</text><text fill="#000000" font-family="sans-serif" font-size="13" lengthAdjust="spacing" textLength="171" x="71" y="209.895">Spawn(controllerActorRef)</text><polygon fill="#181818" points="353.5,240.0938,363.5,244.0938,353.5,248.0938,357.5,244.0938" style="stroke:#181818;stroke-width:1.0;"/><line style="stroke:#181818;stroke-width:1.0;stroke-dasharray:2.0,2.0;" x1="51" x2="359.5" y1="244.0938" y2="244.0938"/><text fill="#000000" font-family="sans-serif" font-size="13" font-weight="bold" lengthAdjust="spacing" textLength="9" x="58" y="239.0278">5</text><text fill="#000000" font-family="sans-serif" font-size="13" lengthAdjust="spacing" textLength="150" x="71" y="239.0278">SetView(viewActorRef)</text><rect fill="#EEEEEE" height="3" style="stroke:#EEEEEE;stroke-width:1.0;" width="789.5" x="0" y="272.6602"/><line style="stroke:#000000;stroke-width:1.0;" x1="0" x2="789.5" y1="272.6602" y2="272.6602"/><line style="stroke:#000000;stroke-width:1.0;" x1="0" x2="789.5" y1="275.6602" y2="275.6602"/><rect fill="#EEEEEE" height="23.1328" style="stroke:#000000;stroke-width:2.0;" width="144" x="322.75" y="262.0938"/><text fill="#000000" font-family="sans-serif" font-size="13" font-weight="bold" lengthAdjust="spacing" textLength="125" x="328.75" y="278.1606">Simulation starts</text><polygon fill="#181818" points="353.5,312.3594,363.5,316.3594,353.5,320.3594,357.5,316.3594" style="stroke:#181818;stroke-width:1.0;"/><line style="stroke:#181818;stroke-width:1.0;stroke-dasharray:2.0,2.0;" x1="264" x2="359.5" y1="316.3594" y2="316.3594"/><text fill="#000000" font-family="sans-serif" font-size="13" font-weight="bold" lengthAdjust="spacing" textLength="9" x="271" y="311.2935">6</text><text fill="#000000" font-family="sans-serif" font-size="13" lengthAdjust="spacing" textLength="41" x="284" y="311.2935">Start()</text><polygon fill="#181818" points="517.5,341.4922,527.5,345.4922,517.5,349.4922,521.5,345.4922" style="stroke:#181818;stroke-width:1.0;"/><line style="stroke:#181818;stroke-width:1.0;stroke-dasharray:2.0,2.0;" x1="375.5" x2="523.5" y1="345.4922" y2="345.4922"/><text fill="#000000" font-family="sans-serif" font-size="13" font-weight="bold" lengthAdjust="spacing" textLength="9" x="382.5" y="340.4263">7</text><text fill="#000000" font-family="sans-serif" font-size="13" lengthAdjust="spacing" textLength="111" x="395.5" y="340.4263">StartSimulation()</text><rect fill="#EEEEEE" height="3" style="stroke:#EEEEEE;stroke-width:1.0;" width="789.5" x="0" y="374.0586"/><line style="stroke:#000000;stroke-width:1.0;" x1="0" x2="789.5" y1="374.0586" y2="374.0586"/><line style="stroke:#000000;stroke-width:1.0;" x1="0" x2="789.5" y1="377.0586" y2="377.0586"/><rect fill="#EEEEEE" height="23.1328" style="stroke:#000000;stroke-width:2.0;" width="136" x="326.75" y="363.4922"/><text fill="#000000" font-family="sans-serif" font-size="13" font-weight="bold" lengthAdjust="spacing" textLength="117" x="332.75" y="379.5591">Simulation ends</text><polygon fill="#181818" points="353.5,413.7578,363.5,417.7578,353.5,421.7578,357.5,417.7578" style="stroke:#181818;stroke-width:1.0;"/><line style="stroke:#181818;stroke-width:1.0;stroke-dasharray:2.0,2.0;" x1="264" x2="359.5" y1="417.7578" y2="417.7578"/><text fill="#000000" font-family="sans-serif" font-size="13" font-weight="bold" lengthAdjust="spacing" textLength="9" x="271" y="412.6919">8</text><text fill="#000000" font-family="sans-serif" font-size="13" lengthAdjust="spacing" textLength="39" x="284" y="412.6919">Stop()</text><polygon fill="#181818" points="517.5,442.8906,527.5,446.8906,517.5,450.8906,521.5,446.8906" style="stroke:#181818;stroke-width:1.0;"/><line style="stroke:#181818;stroke-width:1.0;stroke-dasharray:2.0,2.0;" x1="370.5" x2="523.5" y1="446.8906" y2="446.8906"/><text fill="#000000" font-family="sans-serif" font-size="13" font-weight="bold" lengthAdjust="spacing" textLength="9" x="377.5" y="441.8247">9</text><text fill="#000000" font-family="sans-serif" font-size="13" lengthAdjust="spacing" textLength="109" x="390.5" y="441.8247">StopSimulation()</text><line style="stroke:#A80036;stroke-width:2.0;" x1="361.5" x2="379.5" y1="437.8906" y2="455.8906"/><line style="stroke:#A80036;stroke-width:2.0;" x1="361.5" x2="379.5" y1="455.8906" y2="437.8906"/><polygon fill="#181818" points="699.5,472.0234,709.5,476.0234,699.5,480.0234,703.5,476.0234" style="stroke:#181818;stroke-width:1.0;"/><line style="stroke:#181818;stroke-width:1.0;stroke-dasharray:2.0,2.0;" x1="534.5" x2="705.5" y1="476.0234" y2="476.0234"/><text fill="#000000" font-family="sans-serif" font-size="13" font-weight="bold" lengthAdjust="spacing" textLength="18" x="541.5" y="470.9575">10</text><text fill="#000000" font-family="sans-serif" font-size="13" lengthAdjust="spacing" textLength="31" x="563.5" y="470.9575">Kill()</text><line style="stroke:#A80036;stroke-width:2.0;" x1="525.5" x2="543.5" y1="467.0234" y2="485.0234"/><line style="stroke:#A80036;stroke-width:2.0;" x1="525.5" x2="543.5" y1="485.0234" y2="467.0234"/><line style="stroke:#A80036;stroke-width:2.0;" x1="702.5" x2="720.5" y1="467.0234" y2="485.0234"/><line style="stroke:#A80036;stroke-width:2.0;" x1="702.5" x2="720.5" y1="485.0234" y2="467.0234"/><!--MD5=[b52de324046e4e5bf2bed12c0dd56fe9]
@startuml
autonumber

control ":RootActor" as root
control ":ViewActor" as view
control ":ControllerActor" as controller
control ":SimulationManagerActor" as simulationManager
control ":CelestialBodyActor" as celestialBody

activate root

== Actors spawn ==
root - -> celestialBody: Spawn()
activate celestialBody
root - -> simulationManager: Spawn(celestialBodyActorRef)
activate simulationManager
root - -> controller: Spawn(simulationManagerActorRef)
activate controller
root - -> view: Spawn(controllerActorRef)
activate view
root - -> controller: SetView(viewActorRef)

== Simulation starts ==
view - -> controller: Start()
controller - -> simulationManager: StartSimulation()

== Simulation ends ==
view - -> controller: Stop()
controller - -> simulationManager: StopSimulation()
destroy controller
simulationManager - -> celestialBody: Kill()
destroy simulationManager
destroy celestialBody

@enduml

PlantUML version 1.2022.12(Sun Oct 23 20:12:26 CEST 2022)
(GPL source distribution)
Java Runtime: OpenJDK Runtime Environment
JVM: OpenJDK 64-Bit Server VM
Default Encoding: UTF-8
Language: en
Country: US
--></g></svg>