<?xml version="1.0" encoding="UTF-8" standalone="no"?><svg xmlns="http://www.w3.org/2000/svg" xmlns:xlink="http://www.w3.org/1999/xlink" contentStyleType="text/css" height="555px" preserveAspectRatio="none" style="width:725px;height:555px;background:#FFFFFF;" version="1.1" viewBox="0 0 725 555" width="725px" zoomAndPan="magnify"><defs/><g><rect fill="#FFFFFF" height="433.7266" style="stroke:#181818;stroke-width:1.0;" width="10" x="60" y="63.2969"/><rect fill="#FFFFFF" height="433.7266" style="stroke:#181818;stroke-width:1.0;" width="10" x="225" y="63.2969"/><rect fill="#FFFFFF" height="433.7266" style="stroke:#181818;stroke-width:1.0;" width="10" x="631" y="63.2969"/><rect fill="none" height="360.4609" style="stroke:#000000;stroke-width:1.5;" width="593" x="126" y="99.4297"/><line style="stroke:#181818;stroke-width:0.5;stroke-dasharray:5.0,5.0;" x1="65" x2="65" y1="53.2969" y2="506.0234"/><line style="stroke:#181818;stroke-width:0.5;stroke-dasharray:5.0,5.0;" x1="230" x2="230" y1="53.2969" y2="506.0234"/><line style="stroke:#181818;stroke-width:0.5;stroke-dasharray:5.0,5.0;" x1="636" x2="636" y1="53.2969" y2="506.0234"/><text fill="#000000" font-family="sans-serif" font-size="14" lengthAdjust="spacing" textLength="114" x="5" y="49.9951">:ControllerActor</text><ellipse cx="65" cy="21" fill="#E2E2F0" rx="12" ry="12" style="stroke:#181818;stroke-width:0.5;"/><polygon fill="#181818" points="61,9,67,4,65,9,67,14,61,9" style="stroke:#181818;stroke-width:1.0;"/><text fill="#000000" font-family="sans-serif" font-size="14" lengthAdjust="spacing" textLength="114" x="5" y="518.0186">:ControllerActor</text><ellipse cx="65" cy="537.3203" fill="#E2E2F0" rx="12" ry="12" style="stroke:#181818;stroke-width:0.5;"/><polygon fill="#181818" points="61,525.3203,67,520.3203,65,525.3203,67,530.3203,61,525.3203" style="stroke:#181818;stroke-width:1.0;"/><text fill="#000000" font-family="sans-serif" font-size="14" lengthAdjust="spacing" textLength="182" x="136" y="49.9951">:SimulationManagerActor</text><ellipse cx="230" cy="21" fill="#E2E2F0" rx="12" ry="12" style="stroke:#181818;stroke-width:0.5;"/><polygon fill="#181818" points="226,9,232,4,230,9,232,14,226,9" style="stroke:#181818;stroke-width:1.0;"/><text fill="#000000" font-family="sans-serif" font-size="14" lengthAdjust="spacing" textLength="182" x="136" y="518.0186">:SimulationManagerActor</text><ellipse cx="230" cy="537.3203" fill="#E2E2F0" rx="12" ry="12" style="stroke:#181818;stroke-width:0.5;"/><polygon fill="#181818" points="226,525.3203,232,520.3203,230,525.3203,232,530.3203,226,525.3203" style="stroke:#181818;stroke-width:1.0;"/><text fill="#000000" font-family="sans-serif" font-size="14" lengthAdjust="spacing" textLength="140" x="563" y="49.9951">:CelestialBodyActor</text><ellipse cx="636" cy="21" fill="#E2E2F0" rx="12" ry="12" style="stroke:#181818;stroke-width:0.5;"/><polygon fill="#181818" points="632,9,638,4,636,9,638,14,632,9" style="stroke:#181818;stroke-width:1.0;"/><text fill="#000000" font-family="sans-serif" font-size="14" lengthAdjust="spacing" textLength="140" x="563" y="518.0186">:CelestialBodyActor</text><ellipse cx="636" cy="537.3203" fill="#E2E2F0" rx="12" ry="12" style="stroke:#181818;stroke-width:0.5;"/><polygon fill="#181818" points="632,525.3203,638,520.3203,636,525.3203,638,530.3203,632,525.3203" style="stroke:#181818;stroke-width:1.0;"/><rect fill="#FFFFFF" height="433.7266" style="stroke:#181818;stroke-width:1.0;" width="10" x="60" y="63.2969"/><rect fill="#FFFFFF" height="433.7266" style="stroke:#181818;stroke-width:1.0;" width="10" x="225" y="63.2969"/><rect fill="#FFFFFF" height="433.7266" style="stroke:#181818;stroke-width:1.0;" width="10" x="631" y="63.2969"/><polygon fill="#181818" points="213,80.4297,223,84.4297,213,88.4297,217,84.4297" style="stroke:#181818;stroke-width:1.0;"/><line style="stroke:#181818;stroke-width:1.0;stroke-dasharray:2.0,2.0;" x1="70" x2="219" y1="84.4297" y2="84.4297"/><text fill="#000000" font-family="sans-serif" font-size="13" font-weight="bold" lengthAdjust="spacing" textLength="9" x="77" y="79.3638">1</text><text fill="#000000" font-family="sans-serif" font-size="13" lengthAdjust="spacing" textLength="111" x="90" y="79.3638">StartSimulation()</text><path d="M126,99.4297 L202,99.4297 L202,106.5625 L192,116.5625 L126,116.5625 L126,99.4297 " fill="#EEEEEE" style="stroke:#000000;stroke-width:1.5;"/><rect fill="none" height="360.4609" style="stroke:#000000;stroke-width:1.5;" width="593" x="126" y="99.4297"/><text fill="#000000" font-family="sans-serif" font-size="13" font-weight="bold" lengthAdjust="spacing" textLength="31" x="141" y="112.4966">loop</text><line style="stroke:#181818;stroke-width:1.0;stroke-dasharray:2.0,2.0;" x1="235" x2="277" y1="137.6953" y2="137.6953"/><line style="stroke:#181818;stroke-width:1.0;stroke-dasharray:2.0,2.0;" x1="277" x2="277" y1="137.6953" y2="150.6953"/><line style="stroke:#181818;stroke-width:1.0;stroke-dasharray:2.0,2.0;" x1="236" x2="277" y1="150.6953" y2="150.6953"/><polygon fill="#181818" points="246,146.6953,236,150.6953,246,154.6953,242,150.6953" style="stroke:#181818;stroke-width:1.0;"/><text fill="#000000" font-family="sans-serif" font-size="13" font-weight="bold" lengthAdjust="spacing" textLength="9" x="242" y="132.6294">2</text><text fill="#000000" font-family="sans-serif" font-size="13" lengthAdjust="spacing" textLength="94" x="255" y="132.6294">IterationStep()</text><polygon fill="#181818" points="619,175.8281,629,179.8281,619,183.8281,623,179.8281" style="stroke:#181818;stroke-width:1.0;"/><line style="stroke:#181818;stroke-width:1.0;stroke-dasharray:2.0,2.0;" x1="235" x2="625" y1="179.8281" y2="179.8281"/><text fill="#000000" font-family="sans-serif" font-size="13" font-weight="bold" lengthAdjust="spacing" textLength="9" x="242" y="174.7622">3</text><text fill="#000000" font-family="sans-serif" font-size="13" lengthAdjust="spacing" textLength="203" x="255" y="174.7622">UpdateCelestialBodyType(self)</text><polygon fill="#181818" points="246,204.9609,236,208.9609,246,212.9609,242,208.9609" style="stroke:#181818;stroke-width:1.0;"/><line style="stroke:#181818;stroke-width:1.0;stroke-dasharray:2.0,2.0;" x1="240" x2="630" y1="208.9609" y2="208.9609"/><text fill="#000000" font-family="sans-serif" font-size="13" font-weight="bold" lengthAdjust="spacing" textLength="9" x="252" y="203.895">4</text><text fill="#000000" font-family="sans-serif" font-size="13" lengthAdjust="spacing" textLength="350" x="265" y="203.895">CelestialBodyState(celestialBody, celestialBodyType)</text><line style="stroke:#181818;stroke-width:1.0;stroke-dasharray:2.0,2.0;" x1="235" x2="277" y1="238.0938" y2="238.0938"/><line style="stroke:#181818;stroke-width:1.0;stroke-dasharray:2.0,2.0;" x1="277" x2="277" y1="238.0938" y2="251.0938"/><line style="stroke:#181818;stroke-width:1.0;stroke-dasharray:2.0,2.0;" x1="236" x2="277" y1="251.0938" y2="251.0938"/><polygon fill="#181818" points="246,247.0938,236,251.0938,246,255.0938,242,251.0938" style="stroke:#181818;stroke-width:1.0;"/><text fill="#000000" font-family="sans-serif" font-size="13" font-weight="bold" lengthAdjust="spacing" textLength="9" x="242" y="233.0278">5</text><text fill="#000000" font-family="sans-serif" font-size="13" lengthAdjust="spacing" textLength="94" x="255" y="233.0278">IterationStep()</text><polygon fill="#181818" points="619,276.2266,629,280.2266,619,284.2266,623,280.2266" style="stroke:#181818;stroke-width:1.0;"/><line style="stroke:#181818;stroke-width:1.0;stroke-dasharray:2.0,2.0;" x1="235" x2="625" y1="280.2266" y2="280.2266"/><text fill="#000000" font-family="sans-serif" font-size="13" font-weight="bold" lengthAdjust="spacing" textLength="9" x="242" y="275.1606">6</text><text fill="#000000" font-family="sans-serif" font-size="13" lengthAdjust="spacing" textLength="236" x="255" y="275.1606">MoveToNextPosition(tmpState, self)</text><polygon fill="#181818" points="246,305.3594,236,309.3594,246,313.3594,242,309.3594" style="stroke:#181818;stroke-width:1.0;"/><line style="stroke:#181818;stroke-width:1.0;stroke-dasharray:2.0,2.0;" x1="240" x2="630" y1="309.3594" y2="309.3594"/><text fill="#000000" font-family="sans-serif" font-size="13" font-weight="bold" lengthAdjust="spacing" textLength="9" x="252" y="304.2935">7</text><text fill="#000000" font-family="sans-serif" font-size="13" lengthAdjust="spacing" textLength="350" x="265" y="304.2935">CelestialBodyState(celestialBody, celestialBodyType)</text><line style="stroke:#181818;stroke-width:1.0;stroke-dasharray:2.0,2.0;" x1="235" x2="277" y1="338.4922" y2="338.4922"/><line style="stroke:#181818;stroke-width:1.0;stroke-dasharray:2.0,2.0;" x1="277" x2="277" y1="338.4922" y2="351.4922"/><line style="stroke:#181818;stroke-width:1.0;stroke-dasharray:2.0,2.0;" x1="236" x2="277" y1="351.4922" y2="351.4922"/><polygon fill="#181818" points="246,347.4922,236,351.4922,246,355.4922,242,351.4922" style="stroke:#181818;stroke-width:1.0;"/><text fill="#000000" font-family="sans-serif" font-size="13" font-weight="bold" lengthAdjust="spacing" textLength="9" x="242" y="333.4263">8</text><text fill="#000000" font-family="sans-serif" font-size="13" lengthAdjust="spacing" textLength="94" x="255" y="333.4263">IterationStep()</text><polygon fill="#181818" points="619,376.625,629,380.625,619,384.625,623,380.625" style="stroke:#181818;stroke-width:1.0;"/><line style="stroke:#181818;stroke-width:1.0;stroke-dasharray:2.0,2.0;" x1="235" x2="625" y1="380.625" y2="380.625"/><text fill="#000000" font-family="sans-serif" font-size="13" font-weight="bold" lengthAdjust="spacing" textLength="9" x="242" y="375.5591">9</text><text fill="#000000" font-family="sans-serif" font-size="13" lengthAdjust="spacing" textLength="201" x="255" y="375.5591">SolveCollisions(tmpState, self)</text><polygon fill="#181818" points="246,405.7578,236,409.7578,246,413.7578,242,409.7578" style="stroke:#181818;stroke-width:1.0;"/><line style="stroke:#181818;stroke-width:1.0;stroke-dasharray:2.0,2.0;" x1="240" x2="630" y1="409.7578" y2="409.7578"/><text fill="#000000" font-family="sans-serif" font-size="13" font-weight="bold" lengthAdjust="spacing" textLength="18" x="252" y="404.6919">10</text><text fill="#000000" font-family="sans-serif" font-size="13" lengthAdjust="spacing" textLength="350" x="274" y="404.6919">CelestialBodyState(celestialBody, celestialBodyType)</text><line style="stroke:#181818;stroke-width:1.0;stroke-dasharray:2.0,2.0;" x1="235" x2="277" y1="438.8906" y2="438.8906"/><line style="stroke:#181818;stroke-width:1.0;stroke-dasharray:2.0,2.0;" x1="277" x2="277" y1="438.8906" y2="451.8906"/><line style="stroke:#181818;stroke-width:1.0;stroke-dasharray:2.0,2.0;" x1="236" x2="277" y1="451.8906" y2="451.8906"/><polygon fill="#181818" points="246,447.8906,236,451.8906,246,455.8906,242,451.8906" style="stroke:#181818;stroke-width:1.0;"/><text fill="#000000" font-family="sans-serif" font-size="13" font-weight="bold" lengthAdjust="spacing" textLength="18" x="242" y="433.8247">11</text><text fill="#000000" font-family="sans-serif" font-size="13" lengthAdjust="spacing" textLength="94" x="264" y="433.8247">IterationStep()</text><polygon fill="#181818" points="213,484.0234,223,488.0234,213,492.0234,217,488.0234" style="stroke:#181818;stroke-width:1.0;"/><line style="stroke:#181818;stroke-width:1.0;stroke-dasharray:2.0,2.0;" x1="70" x2="219" y1="488.0234" y2="488.0234"/><text fill="#000000" font-family="sans-serif" font-size="13" font-weight="bold" lengthAdjust="spacing" textLength="18" x="77" y="482.9575">12</text><text fill="#000000" font-family="sans-serif" font-size="13" lengthAdjust="spacing" textLength="109" x="99" y="482.9575">StopSimulation()</text><!--MD5=[41bdb7c5110e10f9900295410d5bb9c0]
@startuml
autonumber

control ":ControllerActor" as controller
control ":SimulationManagerActor" as simulationManager
control ":CelestialBodyActor" as celestialBody

activate controller
activate simulationManager
activate celestialBody

controller - -> simulationManager: StartSimulation()

loop
    simulationManager - -> simulationManager: IterationStep()
    simulationManager - -> celestialBody: UpdateCelestialBodyType(self)
    celestialBody - -> simulationManager: CelestialBodyState(celestialBody, celestialBodyType)
    simulationManager - -> simulationManager: IterationStep()
    simulationManager - -> celestialBody: MoveToNextPosition(tmpState, self)
    celestialBody - -> simulationManager: CelestialBodyState(celestialBody, celestialBodyType)
    simulationManager - -> simulationManager: IterationStep()
    simulationManager - -> celestialBody: SolveCollisions(tmpState, self)
    celestialBody - -> simulationManager: CelestialBodyState(celestialBody, celestialBodyType)
    simulationManager - -> simulationManager: IterationStep()
end

controller - -> simulationManager: StopSimulation()

@enduml

PlantUML version 1.2022.12(Sun Oct 23 20:12:26 CEST 2022)
(GPL source distribution)
Java Runtime: OpenJDK Runtime Environment
JVM: OpenJDK 64-Bit Server VM
Default Encoding: UTF-8
Language: en
Country: US
--></g></svg>