<?xml version="1.0" encoding="UTF-8" standalone="no"?><svg xmlns="http://www.w3.org/2000/svg" xmlns:xlink="http://www.w3.org/1999/xlink" contentStyleType="text/css" height="317px" preserveAspectRatio="none" style="width:714px;height:317px;background:#FFFFFF;" version="1.1" viewBox="0 0 714 317" width="714px" zoomAndPan="magnify"><defs/><g><!--MD5=[9a2f167ab424a6bcc2010a142685c29e]
class ControllerActor--><g id="elem_ControllerActor"><rect codeLine="2" fill="#F1F1F1" height="61.412" id="ControllerActor" rx="2.5" ry="2.5" style="stroke:#181818;stroke-width:0.5;" width="134" x="196" y="7"/><ellipse cx="211" cy="29.706" fill="#ADD1B2" rx="11" ry="11" style="stroke:#181818;stroke-width:1.0;"/><path d="M211.1094,24.9873 Q210.1875,24.9873 209.4531,25.2998 Q208.7344,25.6123 208.2344,26.206 Q207.7344,26.7841 207.4531,27.6591 Q207.1875,28.5341 207.1875,29.6279 Q207.1875,31.0654 207.625,32.1123 Q208.0781,33.1591 208.9219,33.706 Q209.7813,34.2529 211.0938,34.2529 Q211.875,34.2529 212.5625,34.1279 Q213.2656,33.9873 214.2656,33.6748 L214.2656,35.5498 Q213.4063,35.8779 212.6406,36.0029 Q211.8906,36.1279 210.875,36.1279 Q208.9531,36.1279 207.6406,35.331 Q206.3438,34.5185 205.6875,33.0498 Q205.0313,31.5654 205.0313,29.5966 Q205.0313,28.1748 205.4219,27.0029 Q205.8281,25.8154 206.6094,24.9404 Q207.3906,24.0654 208.5313,23.5966 Q209.6719,23.1123 211.1406,23.1123 Q212.0938,23.1123 212.9844,23.3154 Q213.8906,23.5029 214.8281,23.9716 L214,25.7529 Q213.2188,25.3779 212.5625,25.1904 Q211.9063,24.9873 211.1094,24.9873 Z " fill="#000000"/><text fill="#000000" font-family="sans-serif" font-size="12" font-style="italic" lengthAdjust="spacing" textLength="44" x="254" y="24.8281">«object»</text><text fill="#000000" font-family="sans-serif" font-size="14" lengthAdjust="spacing" textLength="102" x="225" y="43.31">ControllerActor</text><line style="stroke:#181818;stroke-width:0.5;" x1="197" x2="329" y1="52.412" y2="52.412"/><line style="stroke:#181818;stroke-width:0.5;" x1="197" x2="329" y1="60.412" y2="60.412"/></g><!--MD5=[7ab5542d46523265b98afbdc329d41b2]
class ControllerActorCommand--><g id="elem_ControllerActorCommand"><rect codeLine="3" fill="#F1F1F1" height="61.412" id="ControllerActorCommand" rx="2.5" ry="2.5" style="stroke:#181818;stroke-width:0.5;" width="193" x="166.5" y="128"/><ellipse cx="181.5" cy="150.706" fill="#B4A7E5" rx="11" ry="11" style="stroke:#181818;stroke-width:1.0;"/><path d="M183.5938,157.206 L178.6875,157.206 L178.6875,155.831 L180.1094,155.5185 L180.1094,146.2373 L178.6875,145.8935 L178.6875,144.5341 L183.5938,144.5341 L183.5938,145.8935 L182.1719,146.2373 L182.1719,155.5185 L183.5938,155.831 L183.5938,157.206 Z " fill="#000000"/><text fill="#000000" font-family="sans-serif" font-size="12" font-style="italic" lengthAdjust="spacing" textLength="35" x="258.5" y="145.8281">«trait»</text><text fill="#000000" font-family="sans-serif" font-size="14" font-style="italic" lengthAdjust="spacing" textLength="161" x="195.5" y="164.31">ControllerActorCommand</text><line style="stroke:#181818;stroke-width:0.5;" x1="167.5" x2="358.5" y1="173.412" y2="173.412"/><line style="stroke:#181818;stroke-width:0.5;" x1="167.5" x2="358.5" y1="181.412" y2="181.412"/></g><!--MD5=[0477306aaf5c284583c98d3948ef845f]
class Start--><g id="elem_Start"><rect codeLine="4" fill="#F1F1F1" height="61.412" id="Start" rx="2.5" ry="2.5" style="stroke:#181818;stroke-width:0.5;" width="72" x="7" y="249"/><ellipse cx="22" cy="271.706" fill="#ADD1B2" rx="11" ry="11" style="stroke:#181818;stroke-width:1.0;"/><path d="M22.1094,266.9873 Q21.1875,266.9873 20.4531,267.2998 Q19.7344,267.6123 19.2344,268.206 Q18.7344,268.7841 18.4531,269.6591 Q18.1875,270.5341 18.1875,271.6279 Q18.1875,273.0654 18.625,274.1123 Q19.0781,275.1591 19.9219,275.706 Q20.7813,276.2529 22.0938,276.2529 Q22.875,276.2529 23.5625,276.1279 Q24.2656,275.9873 25.2656,275.6748 L25.2656,277.5498 Q24.4063,277.8779 23.6406,278.0029 Q22.8906,278.1279 21.875,278.1279 Q19.9531,278.1279 18.6406,277.331 Q17.3438,276.5185 16.6875,275.0498 Q16.0313,273.5654 16.0313,271.5966 Q16.0313,270.1748 16.4219,269.0029 Q16.8281,267.8154 17.6094,266.9404 Q18.3906,266.0654 19.5313,265.5966 Q20.6719,265.1123 22.1406,265.1123 Q23.0938,265.1123 23.9844,265.3154 Q24.8906,265.5029 25.8281,265.9716 L25,267.7529 Q24.2188,267.3779 23.5625,267.1904 Q22.9063,266.9873 22.1094,266.9873 Z " fill="#000000"/><text fill="#000000" font-family="sans-serif" font-size="12" font-style="italic" lengthAdjust="spacing" textLength="44" x="34" y="266.8281">«object»</text><text fill="#000000" font-family="sans-serif" font-size="14" lengthAdjust="spacing" textLength="32" x="40" y="285.31">Start</text><line style="stroke:#181818;stroke-width:0.5;" x1="8" x2="78" y1="294.412" y2="294.412"/><line style="stroke:#181818;stroke-width:0.5;" x1="8" x2="78" y1="302.412" y2="302.412"/></g><!--MD5=[e817ac89aa025528a1ddf8e2c0b98a5e]
class Stop--><g id="elem_Stop"><rect codeLine="5" fill="#F1F1F1" height="61.412" id="Stop" rx="2.5" ry="2.5" style="stroke:#181818;stroke-width:0.5;" width="72" x="114" y="249"/><ellipse cx="129" cy="271.706" fill="#ADD1B2" rx="11" ry="11" style="stroke:#181818;stroke-width:1.0;"/><path d="M129.1094,266.9873 Q128.1875,266.9873 127.4531,267.2998 Q126.7344,267.6123 126.2344,268.206 Q125.7344,268.7841 125.4531,269.6591 Q125.1875,270.5341 125.1875,271.6279 Q125.1875,273.0654 125.625,274.1123 Q126.0781,275.1591 126.9219,275.706 Q127.7813,276.2529 129.0938,276.2529 Q129.875,276.2529 130.5625,276.1279 Q131.2656,275.9873 132.2656,275.6748 L132.2656,277.5498 Q131.4063,277.8779 130.6406,278.0029 Q129.8906,278.1279 128.875,278.1279 Q126.9531,278.1279 125.6406,277.331 Q124.3438,276.5185 123.6875,275.0498 Q123.0313,273.5654 123.0313,271.5966 Q123.0313,270.1748 123.4219,269.0029 Q123.8281,267.8154 124.6094,266.9404 Q125.3906,266.0654 126.5313,265.5966 Q127.6719,265.1123 129.1406,265.1123 Q130.0938,265.1123 130.9844,265.3154 Q131.8906,265.5029 132.8281,265.9716 L132,267.7529 Q131.2188,267.3779 130.5625,267.1904 Q129.9063,266.9873 129.1094,266.9873 Z " fill="#000000"/><text fill="#000000" font-family="sans-serif" font-size="12" font-style="italic" lengthAdjust="spacing" textLength="44" x="141" y="266.8281">«object»</text><text fill="#000000" font-family="sans-serif" font-size="14" lengthAdjust="spacing" textLength="30" x="148" y="285.31">Stop</text><line style="stroke:#181818;stroke-width:0.5;" x1="115" x2="185" y1="294.412" y2="294.412"/><line style="stroke:#181818;stroke-width:0.5;" x1="115" x2="185" y1="302.412" y2="302.412"/></g><!--MD5=[38fd6180ca6eef27836d88a67eb15ffe]
class SetView--><g id="elem_SetView"><rect codeLine="6" fill="#F1F1F1" height="48" id="SetView" rx="2.5" ry="2.5" style="stroke:#181818;stroke-width:0.5;" width="84" x="221" y="255.5"/><ellipse cx="236" cy="271.5" fill="#ADD1B2" rx="11" ry="11" style="stroke:#181818;stroke-width:1.0;"/><path d="M236.1094,266.7813 Q235.1875,266.7813 234.4531,267.0938 Q233.7344,267.4063 233.2344,268 Q232.7344,268.5781 232.4531,269.4531 Q232.1875,270.3281 232.1875,271.4219 Q232.1875,272.8594 232.625,273.9063 Q233.0781,274.9531 233.9219,275.5 Q234.7813,276.0469 236.0938,276.0469 Q236.875,276.0469 237.5625,275.9219 Q238.2656,275.7813 239.2656,275.4688 L239.2656,277.3438 Q238.4063,277.6719 237.6406,277.7969 Q236.8906,277.9219 235.875,277.9219 Q233.9531,277.9219 232.6406,277.125 Q231.3438,276.3125 230.6875,274.8438 Q230.0313,273.3594 230.0313,271.3906 Q230.0313,269.9688 230.4219,268.7969 Q230.8281,267.6094 231.6094,266.7344 Q232.3906,265.8594 233.5313,265.3906 Q234.6719,264.9063 236.1406,264.9063 Q237.0938,264.9063 237.9844,265.1094 Q238.8906,265.2969 239.8281,265.7656 L239,267.5469 Q238.2188,267.1719 237.5625,266.9844 Q236.9063,266.7813 236.1094,266.7813 Z " fill="#000000"/><text fill="#000000" font-family="sans-serif" font-size="14" lengthAdjust="spacing" textLength="52" x="250" y="276.932">SetView</text><line style="stroke:#181818;stroke-width:0.5;" x1="222" x2="304" y1="287.5" y2="287.5"/><line style="stroke:#181818;stroke-width:0.5;" x1="222" x2="304" y1="295.5" y2="295.5"/></g><!--MD5=[48406e1b508b4f566147973b02b8015c]
class SimulationStateAdaptedResponse--><g id="elem_SimulationStateAdaptedResponse"><rect codeLine="7" fill="#F1F1F1" height="48" id="SimulationStateAdaptedResponse" rx="2.5" ry="2.5" style="stroke:#181818;stroke-width:0.5;" width="260" x="340" y="255.5"/><ellipse cx="355" cy="271.5" fill="#ADD1B2" rx="11" ry="11" style="stroke:#181818;stroke-width:1.0;"/><path d="M355.1094,266.7813 Q354.1875,266.7813 353.4531,267.0938 Q352.7344,267.4063 352.2344,268 Q351.7344,268.5781 351.4531,269.4531 Q351.1875,270.3281 351.1875,271.4219 Q351.1875,272.8594 351.625,273.9063 Q352.0781,274.9531 352.9219,275.5 Q353.7813,276.0469 355.0938,276.0469 Q355.875,276.0469 356.5625,275.9219 Q357.2656,275.7813 358.2656,275.4688 L358.2656,277.3438 Q357.4063,277.6719 356.6406,277.7969 Q355.8906,277.9219 354.875,277.9219 Q352.9531,277.9219 351.6406,277.125 Q350.3438,276.3125 349.6875,274.8438 Q349.0313,273.3594 349.0313,271.3906 Q349.0313,269.9688 349.4219,268.7969 Q349.8281,267.6094 350.6094,266.7344 Q351.3906,265.8594 352.5313,265.3906 Q353.6719,264.9063 355.1406,264.9063 Q356.0938,264.9063 356.9844,265.1094 Q357.8906,265.2969 358.8281,265.7656 L358,267.5469 Q357.2188,267.1719 356.5625,266.9844 Q355.9063,266.7813 355.1094,266.7813 Z " fill="#000000"/><text fill="#000000" font-family="sans-serif" font-size="14" lengthAdjust="spacing" textLength="228" x="369" y="276.932">SimulationStateAdaptedResponse</text><line style="stroke:#181818;stroke-width:0.5;" x1="341" x2="599" y1="287.5" y2="287.5"/><line style="stroke:#181818;stroke-width:0.5;" x1="341" x2="599" y1="295.5" y2="295.5"/></g><!--MD5=[54578e411d2812d80a0f7a9be075f380]
class Tick--><g id="elem_Tick"><rect codeLine="8" fill="#F1F1F1" height="61.412" id="Tick" rx="2.5" ry="2.5" style="stroke:#181818;stroke-width:0.5;" width="72" x="635" y="249"/><ellipse cx="650" cy="271.706" fill="#ADD1B2" rx="11" ry="11" style="stroke:#181818;stroke-width:1.0;"/><path d="M650.1094,266.9873 Q649.1875,266.9873 648.4531,267.2998 Q647.7344,267.6123 647.2344,268.206 Q646.7344,268.7841 646.4531,269.6591 Q646.1875,270.5341 646.1875,271.6279 Q646.1875,273.0654 646.625,274.1123 Q647.0781,275.1591 647.9219,275.706 Q648.7813,276.2529 650.0938,276.2529 Q650.875,276.2529 651.5625,276.1279 Q652.2656,275.9873 653.2656,275.6748 L653.2656,277.5498 Q652.4063,277.8779 651.6406,278.0029 Q650.8906,278.1279 649.875,278.1279 Q647.9531,278.1279 646.6406,277.331 Q645.3438,276.5185 644.6875,275.0498 Q644.0313,273.5654 644.0313,271.5966 Q644.0313,270.1748 644.4219,269.0029 Q644.8281,267.8154 645.6094,266.9404 Q646.3906,266.0654 647.5313,265.5966 Q648.6719,265.1123 650.1406,265.1123 Q651.0938,265.1123 651.9844,265.3154 Q652.8906,265.5029 653.8281,265.9716 L653,267.7529 Q652.2188,267.3779 651.5625,267.1904 Q650.9063,266.9873 650.1094,266.9873 Z " fill="#000000"/><text fill="#000000" font-family="sans-serif" font-size="12" font-style="italic" lengthAdjust="spacing" textLength="44" x="662" y="266.8281">«object»</text><text fill="#000000" font-family="sans-serif" font-size="14" lengthAdjust="spacing" textLength="26" x="671" y="285.31">Tick</text><line style="stroke:#181818;stroke-width:0.5;" x1="636" x2="706" y1="294.412" y2="294.412"/><line style="stroke:#181818;stroke-width:0.5;" x1="636" x2="706" y1="302.412" y2="302.412"/></g><!--MD5=[779f2b9317b1db81f859dbdd60e5e94c]
reverse link ControllerActorCommand to Start--><g id="link_ControllerActorCommand_Start"><path d="M189.29,198.68 C160.17,214.24 126.46,232.36 96,249 C90.55,251.98 84.79,255.15 79.17,258.27 " fill="none" id="ControllerActorCommand-backto-Start" style="stroke:#181818;stroke-width:1.0;"/><polygon fill="none" points="186.27,192.35,207.21,189.11,192.87,204.7,186.27,192.35" style="stroke:#181818;stroke-width:1.0;"/></g><!--MD5=[dc9e586c1be53833885264aa1d195c97]
reverse link ControllerActorCommand to Stop--><g id="link_ControllerActorCommand_Stop"><path d="M220.65,204.1 C206.49,219.01 191.07,235.25 178.26,248.74 " fill="none" id="ControllerActorCommand-backto-Stop" style="stroke:#181818;stroke-width:1.0;"/><polygon fill="none" points="215.93,198.9,234.78,189.22,226.08,208.54,215.93,198.9" style="stroke:#181818;stroke-width:1.0;"/></g><!--MD5=[5859522af21650ba0e858df2cd818a8d]
reverse link ControllerActorCommand to SetView--><g id="link_ControllerActorCommand_SetView"><path d="M263,209.34 C263,225.37 263,242.37 263,255.5 " fill="none" id="ControllerActorCommand-backto-SetView" style="stroke:#181818;stroke-width:1.0;"/><polygon fill="none" points="256,209.22,263,189.22,270,209.22,256,209.22" style="stroke:#181818;stroke-width:1.0;"/></g><!--MD5=[3b5387a1f305974d50c35b002e338507]
reverse link ControllerActorCommand to SimulationStateAdaptedResponse--><g id="link_ControllerActorCommand_SimulationStateAdaptedResponse"><path d="M331.88,199.1 C364.42,217.8 402.11,239.47 429.89,255.44 " fill="none" id="ControllerActorCommand-backto-SimulationStateAdaptedResponse" style="stroke:#181818;stroke-width:1.0;"/><polygon fill="none" points="328.28,205.11,314.43,189.07,335.26,192.97,328.28,205.11" style="stroke:#181818;stroke-width:1.0;"/></g><!--MD5=[71052eacb8e621eb55c832fde777a393]
reverse link ControllerActorCommand to Tick--><g id="link_ControllerActorCommand_Tick"><path d="M379.45,180.84 C449.93,195.72 540.8,218.39 618,249 C623.58,251.21 629.3,253.9 634.83,256.75 " fill="none" id="ControllerActorCommand-backto-Tick" style="stroke:#181818;stroke-width:1.0;"/><polygon fill="none" points="377.85,187.66,359.67,176.76,380.68,173.95,377.85,187.66" style="stroke:#181818;stroke-width:1.0;"/></g><!--MD5=[bd9d7768a2544a52ad4f4b7cc190f45a]
link ControllerActor to ControllerActorCommand--><g id="link_ControllerActor_ControllerActorCommand"><path codeLine="9" d="M263,68.22 C263,84.69 263,105.26 263,122.51 " fill="none" id="ControllerActor-to-ControllerActorCommand" style="stroke:#181818;stroke-width:1.0;stroke-dasharray:7.0,7.0;"/><polygon fill="#181818" points="263,127.74,267,118.74,263,122.74,259,118.74,263,127.74" style="stroke:#181818;stroke-width:1.0;"/></g><!--MD5=[016f2475f24703453bdfaac058ec7ae8]
@startuml

class ControllerActor << object >>
interface ControllerActorCommand << trait >>
class Start << object >> extends ControllerActorCommand
class Stop << object >> extends ControllerActorCommand
class SetView extends ControllerActorCommand
class SimulationStateAdaptedResponse extends ControllerActorCommand
class Tick << object >> extends ControllerActorCommand
ControllerActor ..> ControllerActorCommand

@enduml

PlantUML version 1.2022.12(Sun Oct 23 20:12:26 CEST 2022)
(GPL source distribution)
Java Runtime: OpenJDK Runtime Environment
JVM: OpenJDK 64-Bit Server VM
Default Encoding: UTF-8
Language: en
Country: US
--></g></svg>