<?xml version="1.0" encoding="UTF-8" standalone="no"?><svg xmlns="http://www.w3.org/2000/svg" xmlns:xlink="http://www.w3.org/1999/xlink" contentStyleType="text/css" height="412px" preserveAspectRatio="none" style="width:511px;height:412px;background:#FFFFFF;" version="1.1" viewBox="0 0 511 412" width="511px" zoomAndPan="magnify"><defs/><g><!--MD5=[eef604bdb18d1b45df9d4305f338a309]
class EventRecorderActor--><g id="elem_EventRecorderActor"><rect codeLine="2" fill="#F1F1F1" height="61.412" id="EventRecorderActor" rx="2.5" ry="2.5" style="stroke:#181818;stroke-width:0.5;" width="165" x="143.5" y="7"/><ellipse cx="158.5" cy="29.706" fill="#ADD1B2" rx="11" ry="11" style="stroke:#181818;stroke-width:1.0;"/><path d="M158.6094,24.9873 Q157.6875,24.9873 156.9531,25.2998 Q156.2344,25.6123 155.7344,26.206 Q155.2344,26.7841 154.9531,27.6591 Q154.6875,28.5341 154.6875,29.6279 Q154.6875,31.0654 155.125,32.1123 Q155.5781,33.1591 156.4219,33.706 Q157.2813,34.2529 158.5938,34.2529 Q159.375,34.2529 160.0625,34.1279 Q160.7656,33.9873 161.7656,33.6748 L161.7656,35.5498 Q160.9063,35.8779 160.1406,36.0029 Q159.3906,36.1279 158.375,36.1279 Q156.4531,36.1279 155.1406,35.331 Q153.8438,34.5185 153.1875,33.0498 Q152.5313,31.5654 152.5313,29.5966 Q152.5313,28.1748 152.9219,27.0029 Q153.3281,25.8154 154.1094,24.9404 Q154.8906,24.0654 156.0313,23.5966 Q157.1719,23.1123 158.6406,23.1123 Q159.5938,23.1123 160.4844,23.3154 Q161.3906,23.5029 162.3281,23.9716 L161.5,25.7529 Q160.7188,25.3779 160.0625,25.1904 Q159.4063,24.9873 158.6094,24.9873 Z " fill="#000000"/><text fill="#000000" font-family="sans-serif" font-size="12" font-style="italic" lengthAdjust="spacing" textLength="44" x="217" y="24.8281">«object»</text><text fill="#000000" font-family="sans-serif" font-size="14" lengthAdjust="spacing" textLength="133" x="172.5" y="43.31">EventRecorderActor</text><line style="stroke:#181818;stroke-width:0.5;" x1="144.5" x2="307.5" y1="52.412" y2="52.412"/><line style="stroke:#181818;stroke-width:0.5;" x1="144.5" x2="307.5" y1="60.412" y2="60.412"/></g><!--MD5=[c26426c71e64e6d75108cf180f840e8e]
class EventRecorderActorCommand--><g id="elem_EventRecorderActorCommand"><rect codeLine="3" fill="#F1F1F1" height="61.412" id="EventRecorderActorCommand" rx="2.5" ry="2.5" style="stroke:#181818;stroke-width:0.5;" width="219" x="116.5" y="128"/><ellipse cx="131.5" cy="150.706" fill="#B4A7E5" rx="11" ry="11" style="stroke:#181818;stroke-width:1.0;"/><path d="M133.5938,157.206 L128.6875,157.206 L128.6875,155.831 L130.1094,155.5185 L130.1094,146.2373 L128.6875,145.8935 L128.6875,144.5341 L133.5938,144.5341 L133.5938,145.8935 L132.1719,146.2373 L132.1719,155.5185 L133.5938,155.831 L133.5938,157.206 Z " fill="#000000"/><text fill="#000000" font-family="sans-serif" font-size="12" font-style="italic" lengthAdjust="spacing" textLength="35" x="221.5" y="145.8281">«trait»</text><text fill="#000000" font-family="sans-serif" font-size="14" font-style="italic" lengthAdjust="spacing" textLength="187" x="145.5" y="164.31">EventRecorderActorCommand</text><line style="stroke:#181818;stroke-width:0.5;" x1="117.5" x2="334.5" y1="173.412" y2="173.412"/><line style="stroke:#181818;stroke-width:0.5;" x1="117.5" x2="334.5" y1="181.412" y2="181.412"/></g><!--MD5=[f8e10dd3604f8fbeac5506b2986afb60]
class RecordSpawn--><g id="elem_RecordSpawn"><rect codeLine="4" fill="#F1F1F1" height="48" id="RecordSpawn" rx="2.5" ry="2.5" style="stroke:#181818;stroke-width:0.5;" width="124" x="7" y="249"/><ellipse cx="22" cy="265" fill="#ADD1B2" rx="11" ry="11" style="stroke:#181818;stroke-width:1.0;"/><path d="M22.1094,260.2813 Q21.1875,260.2813 20.4531,260.5938 Q19.7344,260.9063 19.2344,261.5 Q18.7344,262.0781 18.4531,262.9531 Q18.1875,263.8281 18.1875,264.9219 Q18.1875,266.3594 18.625,267.4063 Q19.0781,268.4531 19.9219,269 Q20.7813,269.5469 22.0938,269.5469 Q22.875,269.5469 23.5625,269.4219 Q24.2656,269.2813 25.2656,268.9688 L25.2656,270.8438 Q24.4063,271.1719 23.6406,271.2969 Q22.8906,271.4219 21.875,271.4219 Q19.9531,271.4219 18.6406,270.625 Q17.3438,269.8125 16.6875,268.3438 Q16.0313,266.8594 16.0313,264.8906 Q16.0313,263.4688 16.4219,262.2969 Q16.8281,261.1094 17.6094,260.2344 Q18.3906,259.3594 19.5313,258.8906 Q20.6719,258.4063 22.1406,258.4063 Q23.0938,258.4063 23.9844,258.6094 Q24.8906,258.7969 25.8281,259.2656 L25,261.0469 Q24.2188,260.6719 23.5625,260.4844 Q22.9063,260.2813 22.1094,260.2813 Z " fill="#000000"/><text fill="#000000" font-family="sans-serif" font-size="14" lengthAdjust="spacing" textLength="92" x="36" y="270.432">RecordSpawn</text><line style="stroke:#181818;stroke-width:0.5;" x1="8" x2="130" y1="281" y2="281"/><line style="stroke:#181818;stroke-width:0.5;" x1="8" x2="130" y1="289" y2="289"/></g><!--MD5=[1606a9a5459796217e03a61f73dc02fc]
class RecordDeath--><g id="elem_RecordDeath"><rect codeLine="5" fill="#F1F1F1" height="48" id="RecordDeath" rx="2.5" ry="2.5" style="stroke:#181818;stroke-width:0.5;" width="119" x="166.5" y="249"/><ellipse cx="181.5" cy="265" fill="#ADD1B2" rx="11" ry="11" style="stroke:#181818;stroke-width:1.0;"/><path d="M181.6094,260.2813 Q180.6875,260.2813 179.9531,260.5938 Q179.2344,260.9063 178.7344,261.5 Q178.2344,262.0781 177.9531,262.9531 Q177.6875,263.8281 177.6875,264.9219 Q177.6875,266.3594 178.125,267.4063 Q178.5781,268.4531 179.4219,269 Q180.2813,269.5469 181.5938,269.5469 Q182.375,269.5469 183.0625,269.4219 Q183.7656,269.2813 184.7656,268.9688 L184.7656,270.8438 Q183.9063,271.1719 183.1406,271.2969 Q182.3906,271.4219 181.375,271.4219 Q179.4531,271.4219 178.1406,270.625 Q176.8438,269.8125 176.1875,268.3438 Q175.5313,266.8594 175.5313,264.8906 Q175.5313,263.4688 175.9219,262.2969 Q176.3281,261.1094 177.1094,260.2344 Q177.8906,259.3594 179.0313,258.8906 Q180.1719,258.4063 181.6406,258.4063 Q182.5938,258.4063 183.4844,258.6094 Q184.3906,258.7969 185.3281,259.2656 L184.5,261.0469 Q183.7188,260.6719 183.0625,260.4844 Q182.4063,260.2813 181.6094,260.2813 Z " fill="#000000"/><text fill="#000000" font-family="sans-serif" font-size="14" lengthAdjust="spacing" textLength="87" x="195.5" y="270.432">RecordDeath</text><line style="stroke:#181818;stroke-width:0.5;" x1="167.5" x2="284.5" y1="281" y2="281"/><line style="stroke:#181818;stroke-width:0.5;" x1="167.5" x2="284.5" y1="289" y2="289"/></g><!--MD5=[1b3fbe315f7bb7f8ac1336306299c422]
class AskRecordedEvents--><g id="elem_AskRecordedEvents"><rect codeLine="6" fill="#F1F1F1" height="48" id="AskRecordedEvents" rx="2.5" ry="2.5" style="stroke:#181818;stroke-width:0.5;" width="163" x="320.5" y="249"/><ellipse cx="335.5" cy="265" fill="#ADD1B2" rx="11" ry="11" style="stroke:#181818;stroke-width:1.0;"/><path d="M335.6094,260.2813 Q334.6875,260.2813 333.9531,260.5938 Q333.2344,260.9063 332.7344,261.5 Q332.2344,262.0781 331.9531,262.9531 Q331.6875,263.8281 331.6875,264.9219 Q331.6875,266.3594 332.125,267.4063 Q332.5781,268.4531 333.4219,269 Q334.2813,269.5469 335.5938,269.5469 Q336.375,269.5469 337.0625,269.4219 Q337.7656,269.2813 338.7656,268.9688 L338.7656,270.8438 Q337.9063,271.1719 337.1406,271.2969 Q336.3906,271.4219 335.375,271.4219 Q333.4531,271.4219 332.1406,270.625 Q330.8438,269.8125 330.1875,268.3438 Q329.5313,266.8594 329.5313,264.8906 Q329.5313,263.4688 329.9219,262.2969 Q330.3281,261.1094 331.1094,260.2344 Q331.8906,259.3594 333.0313,258.8906 Q334.1719,258.4063 335.6406,258.4063 Q336.5938,258.4063 337.4844,258.6094 Q338.3906,258.7969 339.3281,259.2656 L338.5,261.0469 Q337.7188,260.6719 337.0625,260.4844 Q336.4063,260.2813 335.6094,260.2813 Z " fill="#000000"/><text fill="#000000" font-family="sans-serif" font-size="14" lengthAdjust="spacing" textLength="131" x="349.5" y="270.432">AskRecordedEvents</text><line style="stroke:#181818;stroke-width:0.5;" x1="321.5" x2="482.5" y1="281" y2="281"/><line style="stroke:#181818;stroke-width:0.5;" x1="321.5" x2="482.5" y1="289" y2="289"/></g><!--MD5=[f202920b15dd8ea05ecff6e0ef6d353b]
class RecordedEventsResponse--><g id="elem_RecordedEventsResponse"><rect codeLine="7" fill="#F1F1F1" height="48" id="RecordedEventsResponse" rx="2.5" ry="2.5" style="stroke:#181818;stroke-width:0.5;" width="205" x="299.5" y="357"/><ellipse cx="314.5" cy="373" fill="#ADD1B2" rx="11" ry="11" style="stroke:#181818;stroke-width:1.0;"/><path d="M314.6094,368.2813 Q313.6875,368.2813 312.9531,368.5938 Q312.2344,368.9063 311.7344,369.5 Q311.2344,370.0781 310.9531,370.9531 Q310.6875,371.8281 310.6875,372.9219 Q310.6875,374.3594 311.125,375.4063 Q311.5781,376.4531 312.4219,377 Q313.2813,377.5469 314.5938,377.5469 Q315.375,377.5469 316.0625,377.4219 Q316.7656,377.2813 317.7656,376.9688 L317.7656,378.8438 Q316.9063,379.1719 316.1406,379.2969 Q315.3906,379.4219 314.375,379.4219 Q312.4531,379.4219 311.1406,378.625 Q309.8438,377.8125 309.1875,376.3438 Q308.5313,374.8594 308.5313,372.8906 Q308.5313,371.4688 308.9219,370.2969 Q309.3281,369.1094 310.1094,368.2344 Q310.8906,367.3594 312.0313,366.8906 Q313.1719,366.4063 314.6406,366.4063 Q315.5938,366.4063 316.4844,366.6094 Q317.3906,366.7969 318.3281,367.2656 L317.5,369.0469 Q316.7188,368.6719 316.0625,368.4844 Q315.4063,368.2813 314.6094,368.2813 Z " fill="#000000"/><text fill="#000000" font-family="sans-serif" font-size="14" lengthAdjust="spacing" textLength="173" x="328.5" y="378.432">RecordedEventsResponse</text><line style="stroke:#181818;stroke-width:0.5;" x1="300.5" x2="503.5" y1="389" y2="389"/><line style="stroke:#181818;stroke-width:0.5;" x1="300.5" x2="503.5" y1="397" y2="397"/></g><!--MD5=[bf66935290f78eede14e7ae9e1f89c93]
reverse link EventRecorderActorCommand to RecordSpawn--><g id="link_EventRecorderActorCommand_RecordSpawn"><path d="M168.44,200.74 C145.8,216.97 120.65,234.99 101.31,248.85 " fill="none" id="EventRecorderActorCommand-backto-RecordSpawn" style="stroke:#181818;stroke-width:1.0;"/><polygon fill="none" points="164.42,195.02,184.75,189.06,172.57,206.4,164.42,195.02" style="stroke:#181818;stroke-width:1.0;"/></g><!--MD5=[dd42a8eddf8ee190b3a2eddba1c6f198]
reverse link EventRecorderActorCommand to RecordDeath--><g id="link_EventRecorderActorCommand_RecordDeath"><path d="M226,209.11 C226,222.88 226,237.18 226,248.67 " fill="none" id="EventRecorderActorCommand-backto-RecordDeath" style="stroke:#181818;stroke-width:1.0;"/><polygon fill="none" points="219,209.06,226,189.06,233,209.06,219,209.06" style="stroke:#181818;stroke-width:1.0;"/></g><!--MD5=[0c5b0fd88907f3788b43779b05080661]
reverse link EventRecorderActorCommand to AskRecordedEvents--><g id="link_EventRecorderActorCommand_AskRecordedEvents"><path d="M289.41,200.03 C315.08,216.44 343.78,234.79 365.78,248.85 " fill="none" id="EventRecorderActorCommand-backto-AskRecordedEvents" style="stroke:#181818;stroke-width:1.0;"/><polygon fill="none" points="285.32,205.73,272.24,189.06,292.86,193.93,285.32,205.73" style="stroke:#181818;stroke-width:1.0;"/></g><!--MD5=[3809f513ddf4bb8e1096388487ea975d]
link EventRecorderActor to EventRecorderActorCommand--><g id="link_EventRecorderActor_EventRecorderActorCommand"><path codeLine="9" d="M226,68.22 C226,84.69 226,105.26 226,122.51 " fill="none" id="EventRecorderActor-to-EventRecorderActorCommand" style="stroke:#181818;stroke-width:1.0;stroke-dasharray:7.0,7.0;"/><polygon fill="#181818" points="226,127.74,230,118.74,226,122.74,222,118.74,226,127.74" style="stroke:#181818;stroke-width:1.0;"/></g><!--MD5=[7003e051073c91666eb46e453f0d943e]
link AskRecordedEvents to RecordedEventsResponse--><g id="link_AskRecordedEvents_RecordedEventsResponse"><path codeLine="10" d="M402,297 C402,313 402,334.45 402,351.53 " fill="none" id="AskRecordedEvents-to-RecordedEventsResponse" style="stroke:#181818;stroke-width:1.0;stroke-dasharray:7.0,7.0;"/><polygon fill="#181818" points="402,356.68,406,347.68,402,351.68,398,347.68,402,356.68" style="stroke:#181818;stroke-width:1.0;"/></g><!--MD5=[db53d2a0a7c4a6c548adda29dc6800d1]
@startuml

class EventRecorderActor << object >>
interface EventRecorderActorCommand << trait >>
class RecordSpawn extends EventRecorderActorCommand
class RecordDeath extends EventRecorderActorCommand
class AskRecordedEvents extends EventRecorderActorCommand
class RecordedEventsResponse

EventRecorderActor ..> EventRecorderActorCommand
AskRecordedEvents ..> RecordedEventsResponse

@enduml

PlantUML version 1.2022.12(Sun Oct 23 20:12:26 CEST 2022)
(GPL source distribution)
Java Runtime: OpenJDK Runtime Environment
JVM: OpenJDK 64-Bit Server VM
Default Encoding: UTF-8
Language: en
Country: US
--></g></svg>