<?xml version="1.0" encoding="UTF-8" standalone="no"?><svg xmlns="http://www.w3.org/2000/svg" xmlns:xlink="http://www.w3.org/1999/xlink" contentStyleType="text/css" height="466px" preserveAspectRatio="none" style="width:543px;height:466px;background:#FFFFFF;" version="1.1" viewBox="0 0 543 466" width="543px" zoomAndPan="magnify"><defs/><g><!--MD5=[5307704602e8dc5fa8088abdeab365c6]
entity EntityIdentifier.pl--><g id="elem_EntityIdentifier.pl"><path d="M196.5,425.5 L196.5,456.7969 A2.5,2.5 0 0 0 199,459.2969 L344,459.2969 A2.5,2.5 0 0 0 346.5,456.7969 L346.5,433 L336.5,423 L199,423 A2.5,2.5 0 0 0 196.5,425.5 " fill="#F1F1F1" style="stroke:#181818;stroke-width:0.5;"/><path d="M336.5,423 L336.5,430.5 A2.5,2.5 0 0 0 339,433 L346.5,433 " fill="#F1F1F1" style="stroke:#181818;stroke-width:0.5;"/><text fill="#000000" font-family="sans-serif" font-size="14" lengthAdjust="spacing" textLength="130" x="206.5" y="445.9951">EntityIdentifier.pl</text></g><!--MD5=[872c1e38de0e0b81d2b44d0a4342b82a]
class Lifecycle--><g id="elem_Lifecycle"><rect codeLine="1" fill="#F1F1F1" height="72.5625" id="Lifecycle" rx="2.5" ry="2.5" style="stroke:#181818;stroke-width:0.5;" width="529" x="7" y="7"/><ellipse cx="235.25" cy="27.1328" fill="#ADD1B2" rx="11" ry="11" style="stroke:#181818;stroke-width:1.0;"/><path d="M237.5938,22.8047 C236.6563,22.3672 236.0625,22.2266 235.1875,22.2266 C232.5625,22.2266 230.5625,24.3047 230.5625,27.0234 L230.5625,28.1484 C230.5625,30.7266 232.6719,32.6172 235.5625,32.6172 C236.7813,32.6172 237.9375,32.3203 238.6875,31.7734 C239.2656,31.3672 239.5938,30.9141 239.5938,30.5234 C239.5938,30.0703 239.2031,29.6797 238.7344,29.6797 C238.5156,29.6797 238.3125,29.7578 238.125,29.9453 C237.6719,30.4297 237.6719,30.4297 237.4844,30.5234 C237.0625,30.7891 236.375,30.9141 235.6094,30.9141 C233.5625,30.9141 232.2656,29.8203 232.2656,28.1172 L232.2656,27.0234 C232.2656,25.2422 233.5156,23.9297 235.25,23.9297 C235.8281,23.9297 236.4375,24.0859 236.9063,24.3359 C237.3906,24.6172 237.5625,24.8359 237.6563,25.2422 C237.7188,25.6484 237.75,25.7734 237.8906,25.8984 C238.0313,26.0391 238.2656,26.1484 238.4844,26.1484 C238.75,26.1484 239.0156,26.0078 239.1875,25.7891 C239.2969,25.6328 239.3281,25.4453 239.3281,25.0234 L239.3281,23.6016 C239.3281,23.1641 239.3125,23.0391 239.2188,22.8828 C239.0625,22.6172 238.7813,22.4766 238.4844,22.4766 C238.1875,22.4766 237.9844,22.5703 237.7656,22.8828 L237.5938,22.8047 Z " fill="#000000"/><text fill="#000000" font-family="sans-serif" font-size="12" font-style="italic" lengthAdjust="spacing" textLength="51" x="262.25" y="23.1387">«object»</text><text fill="#000000" font-family="sans-serif" font-size="14" lengthAdjust="spacing" textLength="64" x="255.75" y="38.9639">Lifecycle</text><line style="stroke:#181818;stroke-width:0.5;" x1="8" x2="535" y1="47.2656" y2="47.2656"/><line style="stroke:#181818;stroke-width:0.5;" x1="8" x2="535" y1="55.2656" y2="55.2656"/><ellipse cx="18" cy="68.9141" fill="#84BE84" rx="3" ry="3" style="stroke:#038048;stroke-width:1.0;"/><text fill="#000000" font-family="sans-serif" font-size="14" lengthAdjust="spacing" textLength="503" x="27" y="72.2607">entityOneStep(entity: CelestialBody, bodyType: A): (CelestialBody, A)</text></g><!--MD5=[9b881316fecc2694957007b57cab534e]
class EntityIdentifier--><g id="elem_EntityIdentifier"><rect codeLine="4" fill="#F1F1F1" height="56.2656" id="EntityIdentifier" rx="2.5" ry="2.5" style="stroke:#181818;stroke-width:0.5;" width="143" x="200" y="157"/><ellipse cx="215" cy="177.1328" fill="#ADD1B2" rx="11" ry="11" style="stroke:#181818;stroke-width:1.0;"/><path d="M217.3438,172.8047 C216.4063,172.3672 215.8125,172.2266 214.9375,172.2266 C212.3125,172.2266 210.3125,174.3047 210.3125,177.0234 L210.3125,178.1484 C210.3125,180.7266 212.4219,182.6172 215.3125,182.6172 C216.5313,182.6172 217.6875,182.3203 218.4375,181.7734 C219.0156,181.3672 219.3438,180.9141 219.3438,180.5234 C219.3438,180.0703 218.9531,179.6797 218.4844,179.6797 C218.2656,179.6797 218.0625,179.7578 217.875,179.9453 C217.4219,180.4297 217.4219,180.4297 217.2344,180.5234 C216.8125,180.7891 216.125,180.9141 215.3594,180.9141 C213.3125,180.9141 212.0156,179.8203 212.0156,178.1172 L212.0156,177.0234 C212.0156,175.2422 213.2656,173.9297 215,173.9297 C215.5781,173.9297 216.1875,174.0859 216.6563,174.3359 C217.1406,174.6172 217.3125,174.8359 217.4063,175.2422 C217.4688,175.6484 217.5,175.7734 217.6406,175.8984 C217.7813,176.0391 218.0156,176.1484 218.2344,176.1484 C218.5,176.1484 218.7656,176.0078 218.9375,175.7891 C219.0469,175.6328 219.0781,175.4453 219.0781,175.0234 L219.0781,173.6016 C219.0781,173.1641 219.0625,173.0391 218.9688,172.8828 C218.8125,172.6172 218.5313,172.4766 218.2344,172.4766 C217.9375,172.4766 217.7344,172.5703 217.5156,172.8828 L217.3438,172.8047 Z " fill="#000000"/><text fill="#000000" font-family="sans-serif" font-size="12" font-style="italic" lengthAdjust="spacing" textLength="51" x="259" y="173.1387">«object»</text><text fill="#000000" font-family="sans-serif" font-size="14" lengthAdjust="spacing" textLength="111" x="229" y="188.9639">EntityIdentifier</text><line style="stroke:#181818;stroke-width:0.5;" x1="201" x2="342" y1="197.2656" y2="197.2656"/><line style="stroke:#181818;stroke-width:0.5;" x1="201" x2="342" y1="205.2656" y2="205.2656"/></g><!--MD5=[58a653bf1d29d05fb6dbc1b39e3643f3]
class Scala2P--><g id="elem_Scala2P"><rect codeLine="5" fill="#F1F1F1" height="56.2656" id="Scala2P" rx="2.5" ry="2.5" style="stroke:#181818;stroke-width:0.5;" width="86" x="228.5" y="290"/><ellipse cx="243.5" cy="310.1328" fill="#ADD1B2" rx="11" ry="11" style="stroke:#181818;stroke-width:1.0;"/><path d="M245.8438,305.8047 C244.9063,305.3672 244.3125,305.2266 243.4375,305.2266 C240.8125,305.2266 238.8125,307.3047 238.8125,310.0234 L238.8125,311.1484 C238.8125,313.7266 240.9219,315.6172 243.8125,315.6172 C245.0313,315.6172 246.1875,315.3203 246.9375,314.7734 C247.5156,314.3672 247.8438,313.9141 247.8438,313.5234 C247.8438,313.0703 247.4531,312.6797 246.9844,312.6797 C246.7656,312.6797 246.5625,312.7578 246.375,312.9453 C245.9219,313.4297 245.9219,313.4297 245.7344,313.5234 C245.3125,313.7891 244.625,313.9141 243.8594,313.9141 C241.8125,313.9141 240.5156,312.8203 240.5156,311.1172 L240.5156,310.0234 C240.5156,308.2422 241.7656,306.9297 243.5,306.9297 C244.0781,306.9297 244.6875,307.0859 245.1563,307.3359 C245.6406,307.6172 245.8125,307.8359 245.9063,308.2422 C245.9688,308.6484 246,308.7734 246.1406,308.8984 C246.2813,309.0391 246.5156,309.1484 246.7344,309.1484 C247,309.1484 247.2656,309.0078 247.4375,308.7891 C247.5469,308.6328 247.5781,308.4453 247.5781,308.0234 L247.5781,306.6016 C247.5781,306.1641 247.5625,306.0391 247.4688,305.8828 C247.3125,305.6172 247.0313,305.4766 246.7344,305.4766 C246.4375,305.4766 246.2344,305.5703 246.0156,305.8828 L245.8438,305.8047 Z " fill="#000000"/><text fill="#000000" font-family="sans-serif" font-size="12" font-style="italic" lengthAdjust="spacing" textLength="51" x="259" y="306.1387">«object»</text><text fill="#000000" font-family="sans-serif" font-size="14" lengthAdjust="spacing" textLength="54" x="257.5" y="321.9639">Scala2P</text><line style="stroke:#181818;stroke-width:0.5;" x1="229.5" x2="313.5" y1="330.2656" y2="330.2656"/><line style="stroke:#181818;stroke-width:0.5;" x1="229.5" x2="313.5" y1="338.2656" y2="338.2656"/></g><!--MD5=[57fcb756ec55c62cc4fe2522349d7113]
link EntityIdentifier to Scala2P--><g id="link_EntityIdentifier_Scala2P"><path codeLine="9" d="M271.5,213.143 C271.5,233.957 271.5,262.75 271.5,284.741 " fill="none" id="EntityIdentifier-to-Scala2P" style="stroke:#181818;stroke-width:1.0;"/><polygon fill="#181818" points="271.5,289.891,275.5,280.891,271.5,284.891,267.5,280.891,271.5,289.891" style="stroke:#181818;stroke-width:1.0;"/><text fill="#000000" font-family="sans-serif" font-size="13" lengthAdjust="spacing" textLength="23" x="272.5" y="256.0669">use</text></g><!--MD5=[41083df5cea8ff5622b4172e0d34de97]
link Lifecycle to EntityIdentifier--><g id="link_Lifecycle_EntityIdentifier"><path codeLine="10" d="M271.5,80.063 C271.5,102.183 271.5,130.399 271.5,151.849 " fill="none" id="Lifecycle-to-EntityIdentifier" style="stroke:#181818;stroke-width:1.0;"/><polygon fill="#181818" points="271.5,156.87,275.5,147.87,271.5,151.87,267.5,147.87,271.5,156.87" style="stroke:#181818;stroke-width:1.0;"/><text fill="#000000" font-family="sans-serif" font-size="13" lengthAdjust="spacing" textLength="23" x="272.5" y="123.0669">use</text></g><!--MD5=[9a1e23f6712e1a47e40db0913adf72f4]
link Scala2P to EntityIdentifier.pl--><g id="link_Scala2P_EntityIdentifier.pl"><path codeLine="11" d="M271.5,346.155 C271.5,367.6459 271.5,397.3008 271.5,417.4842 " fill="none" id="Scala2P-to-EntityIdentifier.pl" style="stroke:#181818;stroke-width:1.0;"/><polygon fill="#181818" points="271.5,422.6556,275.5,413.6556,271.5,417.6556,267.5,413.6556,271.5,422.6556" style="stroke:#181818;stroke-width:1.0;"/><text fill="#000000" font-family="sans-serif" font-size="13" lengthAdjust="spacing" textLength="37" x="272.5" y="389.0669">query</text></g><!--MD5=[bae20d3eae99dd113819600634e30279]
@startuml
class Lifecycle << object >> {
+entityOneStep(entity: CelestialBody, bodyType: A): (CelestialBody, A)
}
class EntityIdentifier << object >>
class Scala2P << object >>
package EntityIdentifier.pl <<File>> {
}

EntityIdentifier - -> Scala2P : use
Lifecycle - -> EntityIdentifier : use
Scala2P - -> EntityIdentifier.pl : query
@enduml

PlantUML version 1.2022.13beta1(Unknown compile time)
(GPL source distribution)
Java Runtime: Java(TM) SE Runtime Environment
JVM: Java HotSpot(TM) 64-Bit Server VM
Default Encoding: UTF-8
Language: en
Country: US
--></g></svg>