<?xml version="1.0" encoding="UTF-8" standalone="no"?><svg xmlns="http://www.w3.org/2000/svg" xmlns:xlink="http://www.w3.org/1999/xlink" contentStyleType="text/css" height="901px" preserveAspectRatio="none" style="width:426px;height:901px;background:#FFFFFF;" version="1.1" viewBox="0 0 426 901" width="426px" zoomAndPan="magnify"><defs/><g><path d="M8.5,666 L86.5,666 A3.75,3.75 0 0 1 89,668.5 L96,688.2969 L100.5,688.2969 A2.5,2.5 0 0 1 103,690.7969 L103,716.0938 A2.5,2.5 0 0 1 100.5,718.5938 L8.5,718.5938 A2.5,2.5 0 0 1 6,716.0938 L6,668.5 A2.5,2.5 0 0 1 8.5,666 " fill="#F1F1F1" style="stroke:#181818;stroke-width:0.5;"/><line style="stroke:#181818;stroke-width:0.5;" x1="6" x2="96" y1="688.2969" y2="688.2969"/><text fill="#000000" font-family="sans-serif" font-size="14" lengthAdjust="spacing" textLength="77" x="10" y="680.9951">galaxy_sim</text><path d="M177,490 L223,490 A3.75,3.75 0 0 1 225.5,492.5 L232.5,512.2969 L237,512.2969 A2.5,2.5 0 0 1 239.5,514.7969 L239.5,540.0938 A2.5,2.5 0 0 1 237,542.5938 L177,542.5938 A2.5,2.5 0 0 1 174.5,540.0938 L174.5,492.5 A2.5,2.5 0 0 1 177,490 " fill="#F1F1F1" style="stroke:#181818;stroke-width:0.5;"/><line style="stroke:#181818;stroke-width:0.5;" x1="174.5" x2="232.5" y1="512.2969" y2="512.2969"/><text fill="#000000" font-family="sans-serif" font-size="14" lengthAdjust="spacing" textLength="45" x="178.5" y="504.9951">actors</text><path d="M177,578 L223,578 A3.75,3.75 0 0 1 225.5,580.5 L232.5,600.2969 L237,600.2969 A2.5,2.5 0 0 1 239.5,602.7969 L239.5,628.0938 A2.5,2.5 0 0 1 237,630.5938 L177,630.5938 A2.5,2.5 0 0 1 174.5,628.0938 L174.5,580.5 A2.5,2.5 0 0 1 177,578 " fill="#F1F1F1" style="stroke:#181818;stroke-width:0.5;"/><line style="stroke:#181818;stroke-width:0.5;" x1="174.5" x2="232.5" y1="600.2969" y2="600.2969"/><text fill="#000000" font-family="sans-serif" font-size="14" lengthAdjust="spacing" textLength="45" x="178.5" y="592.9951">model</text><path d="M176,666 L224,666 A3.75,3.75 0 0 1 226.5,668.5 L233.5,688.2969 L238,688.2969 A2.5,2.5 0 0 1 240.5,690.7969 L240.5,716.0938 A2.5,2.5 0 0 1 238,718.5938 L176,718.5938 A2.5,2.5 0 0 1 173.5,716.0938 L173.5,668.5 A2.5,2.5 0 0 1 176,666 " fill="#F1F1F1" style="stroke:#181818;stroke-width:0.5;"/><line style="stroke:#181818;stroke-width:0.5;" x1="173.5" x2="233.5" y1="688.2969" y2="688.2969"/><text fill="#000000" font-family="sans-serif" font-size="14" lengthAdjust="spacing" textLength="47" x="177.5" y="680.9951">prolog</text><path d="M184.5,754 L215.5,754 A3.75,3.75 0 0 1 218,756.5 L225,776.2969 L229.5,776.2969 A2.5,2.5 0 0 1 232,778.7969 L232,804.0938 A2.5,2.5 0 0 1 229.5,806.5938 L184.5,806.5938 A2.5,2.5 0 0 1 182,804.0938 L182,756.5 A2.5,2.5 0 0 1 184.5,754 " fill="#F1F1F1" style="stroke:#181818;stroke-width:0.5;"/><line style="stroke:#181818;stroke-width:0.5;" x1="182" x2="225" y1="776.2969" y2="776.2969"/><text fill="#000000" font-family="sans-serif" font-size="14" lengthAdjust="spacing" textLength="30" x="186" y="768.9951">utils</text><path d="M183.5,842 L216.5,842 A3.75,3.75 0 0 1 219,844.5 L226,864.2969 L230.5,864.2969 A2.5,2.5 0 0 1 233,866.7969 L233,892.0938 A2.5,2.5 0 0 1 230.5,894.5938 L183.5,894.5938 A2.5,2.5 0 0 1 181,892.0938 L181,844.5 A2.5,2.5 0 0 1 183.5,842 " fill="#F1F1F1" style="stroke:#181818;stroke-width:0.5;"/><line style="stroke:#181818;stroke-width:0.5;" x1="181" x2="226" y1="864.2969" y2="864.2969"/><text fill="#000000" font-family="sans-serif" font-size="14" lengthAdjust="spacing" textLength="32" x="185" y="856.9951">view</text><path d="M20.5,314 L74.5,314 A3.75,3.75 0 0 1 77,316.5 L84,336.2969 L88.5,336.2969 A2.5,2.5 0 0 1 91,338.7969 L91,364.0938 A2.5,2.5 0 0 1 88.5,366.5938 L20.5,366.5938 A2.5,2.5 0 0 1 18,364.0938 L18,316.5 A2.5,2.5 0 0 1 20.5,314 " fill="#F1F1F1" style="stroke:#181818;stroke-width:0.5;"/><line style="stroke:#181818;stroke-width:0.5;" x1="18" x2="84" y1="336.2969" y2="336.2969"/><text fill="#000000" font-family="sans-serif" font-size="14" lengthAdjust="spacing" textLength="53" x="22" y="328.9951">physics</text><path d="M167,226 L233,226 A3.75,3.75 0 0 1 235.5,228.5 L242.5,248.2969 L247,248.2969 A2.5,2.5 0 0 1 249.5,250.7969 L249.5,276.0938 A2.5,2.5 0 0 1 247,278.5938 L167,278.5938 A2.5,2.5 0 0 1 164.5,276.0938 L164.5,228.5 A2.5,2.5 0 0 1 167,226 " fill="#F1F1F1" style="stroke:#181818;stroke-width:0.5;"/><line style="stroke:#181818;stroke-width:0.5;" x1="164.5" x2="242.5" y1="248.2969" y2="248.2969"/><text fill="#000000" font-family="sans-serif" font-size="14" lengthAdjust="spacing" textLength="65" x="168.5" y="240.9951">collisions</text><path d="M166,314 L234,314 A3.75,3.75 0 0 1 236.5,316.5 L243.5,336.2969 L248,336.2969 A2.5,2.5 0 0 1 250.5,338.7969 L250.5,364.0938 A2.5,2.5 0 0 1 248,366.5938 L166,366.5938 A2.5,2.5 0 0 1 163.5,364.0938 L163.5,316.5 A2.5,2.5 0 0 1 166,314 " fill="#F1F1F1" style="stroke:#181818;stroke-width:0.5;"/><line style="stroke:#181818;stroke-width:0.5;" x1="163.5" x2="243.5" y1="336.2969" y2="336.2969"/><text fill="#000000" font-family="sans-serif" font-size="14" lengthAdjust="spacing" textLength="67" x="167.5" y="328.9951">dynamics</text><path d="M165.5,402 L234.5,402 A3.75,3.75 0 0 1 237,404.5 L244,424.2969 L248.5,424.2969 A2.5,2.5 0 0 1 251,426.7969 L251,452.0938 A2.5,2.5 0 0 1 248.5,454.5938 L165.5,454.5938 A2.5,2.5 0 0 1 163,452.0938 L163,404.5 A2.5,2.5 0 0 1 165.5,402 " fill="#F1F1F1" style="stroke:#181818;stroke-width:0.5;"/><line style="stroke:#181818;stroke-width:0.5;" x1="163" x2="244" y1="424.2969" y2="424.2969"/><text fill="#000000" font-family="sans-serif" font-size="14" lengthAdjust="spacing" textLength="68" x="167" y="416.9951">rigidbody</text><path d="M328.5,6 L387.5,6 A3.75,3.75 0 0 1 390,8.5 L397,28.2969 L401.5,28.2969 A2.5,2.5 0 0 1 404,30.7969 L404,56.0938 A2.5,2.5 0 0 1 401.5,58.5938 L328.5,58.5938 A2.5,2.5 0 0 1 326,56.0938 L326,8.5 A2.5,2.5 0 0 1 328.5,6 " fill="#F1F1F1" style="stroke:#181818;stroke-width:0.5;"/><line style="stroke:#181818;stroke-width:0.5;" x1="326" x2="397" y1="28.2969" y2="28.2969"/><text fill="#000000" font-family="sans-serif" font-size="14" lengthAdjust="spacing" textLength="58" x="330" y="20.9951">collision</text><path d="M332,94 L384,94 A3.75,3.75 0 0 1 386.5,96.5 L393.5,116.2969 L398,116.2969 A2.5,2.5 0 0 1 400.5,118.7969 L400.5,144.0938 A2.5,2.5 0 0 1 398,146.5938 L332,146.5938 A2.5,2.5 0 0 1 329.5,144.0938 L329.5,96.5 A2.5,2.5 0 0 1 332,94 " fill="#F1F1F1" style="stroke:#181818;stroke-width:0.5;"/><line style="stroke:#181818;stroke-width:0.5;" x1="329.5" x2="393.5" y1="116.2969" y2="116.2969"/><text fill="#000000" font-family="sans-serif" font-size="14" lengthAdjust="spacing" textLength="51" x="333.5" y="108.9951">impact</text><path d="M323.5,182 L392.5,182 A3.75,3.75 0 0 1 395,184.5 L402,204.2969 L406.5,204.2969 A2.5,2.5 0 0 1 409,206.7969 L409,232.0938 A2.5,2.5 0 0 1 406.5,234.5938 L323.5,234.5938 A2.5,2.5 0 0 1 321,232.0938 L321,184.5 A2.5,2.5 0 0 1 323.5,182 " fill="#F1F1F1" style="stroke:#181818;stroke-width:0.5;"/><line style="stroke:#181818;stroke-width:0.5;" x1="321" x2="402" y1="204.2969" y2="204.2969"/><text fill="#000000" font-family="sans-serif" font-size="14" lengthAdjust="spacing" textLength="68" x="325" y="196.9951">instances</text><path d="M313.5,270 L402.5,270 A3.75,3.75 0 0 1 405,272.5 L412,292.2969 L416.5,292.2969 A2.5,2.5 0 0 1 419,294.7969 L419,320.0938 A2.5,2.5 0 0 1 416.5,322.5938 L313.5,322.5938 A2.5,2.5 0 0 1 311,320.0938 L311,272.5 A2.5,2.5 0 0 1 313.5,270 " fill="#F1F1F1" style="stroke:#181818;stroke-width:0.5;"/><line style="stroke:#181818;stroke-width:0.5;" x1="311" x2="412" y1="292.2969" y2="292.2969"/><text fill="#000000" font-family="sans-serif" font-size="14" lengthAdjust="spacing" textLength="88" x="315" y="284.9951">intersection</text><path d="M329.5,358 L386.5,358 A3.75,3.75 0 0 1 389,360.5 L396,380.2969 L400.5,380.2969 A2.5,2.5 0 0 1 403,382.7969 L403,408.0938 A2.5,2.5 0 0 1 400.5,410.5938 L329.5,410.5938 A2.5,2.5 0 0 1 327,408.0938 L327,360.5 A2.5,2.5 0 0 1 329.5,358 " fill="#F1F1F1" style="stroke:#181818;stroke-width:0.5;"/><line style="stroke:#181818;stroke-width:0.5;" x1="327" x2="396" y1="380.2969" y2="380.2969"/><text fill="#000000" font-family="sans-serif" font-size="14" lengthAdjust="spacing" textLength="56" x="331" y="372.9951">monads</text><path d="M334,446 L382,446 A3.75,3.75 0 0 1 384.5,448.5 L391.5,468.2969 L396,468.2969 A2.5,2.5 0 0 1 398.5,470.7969 L398.5,496.0938 A2.5,2.5 0 0 1 396,498.5938 L334,498.5938 A2.5,2.5 0 0 1 331.5,496.0938 L331.5,448.5 A2.5,2.5 0 0 1 334,446 " fill="#F1F1F1" style="stroke:#181818;stroke-width:0.5;"/><line style="stroke:#181818;stroke-width:0.5;" x1="331.5" x2="391.5" y1="468.2969" y2="468.2969"/><text fill="#000000" font-family="sans-serif" font-size="14" lengthAdjust="spacing" textLength="47" x="335.5" y="460.9951">syntax</text><!--MD5=[a53e2521330d0a5e62c5b0528a785c8a]
reverse link galaxy_sim to actors--><g id="link_galaxy_sim_actors"><path d="M85.3988,653.936 C106.49,627.199 135.732,591.051 163,560.5 C168.121,554.763 173.763,548.772 179.227,543.125 " fill="none" id="galaxy_sim-backto-actors" style="stroke:#181818;stroke-width:1.0;"/><ellipse cx="80.9709" cy="659.5779" fill="#FFFFFF" rx="8" ry="8" style="stroke:#181818;stroke-width:1.0;"/><line style="stroke:#181818;stroke-width:1.0;" x1="85.9102" x2="76.0316" y1="653.2848" y2="665.871"/><line style="stroke:#181818;stroke-width:1.0;" x1="87.264" x2="74.6778" y1="664.5172" y2="654.6386"/></g><!--MD5=[72cd9ad3f1efeb0e703daa554ffb725a]
reverse link galaxy_sim to model--><g id="link_galaxy_sim_model"><path d="M114.227,658.161 C134.74,646.167 156.977,633.165 174.423,622.964 " fill="none" id="galaxy_sim-backto-model" style="stroke:#181818;stroke-width:1.0;"/><ellipse cx="107.9694" cy="661.8198" fill="#FFFFFF" rx="8" ry="8" style="stroke:#181818;stroke-width:1.0;"/><line style="stroke:#181818;stroke-width:1.0;" x1="114.8755" x2="101.0634" y1="657.7817" y2="665.858"/><line style="stroke:#181818;stroke-width:1.0;" x1="112.0076" x2="103.9313" y1="668.7259" y2="654.9138"/></g><!--MD5=[daab49eadc9f4679da86b9aedf4bed7e]
reverse link galaxy_sim to prolog--><g id="link_galaxy_sim_prolog"><path d="M118.331,692.5 C137.281,692.5 157.312,692.5 173.436,692.5 " fill="none" id="galaxy_sim-backto-prolog" style="stroke:#181818;stroke-width:1.0;"/><ellipse cx="111.1191" cy="692.5" fill="#FFFFFF" rx="8" ry="8" style="stroke:#181818;stroke-width:1.0;"/><line style="stroke:#181818;stroke-width:1.0;" x1="119.1191" x2="103.1191" y1="692.5" y2="692.5"/><line style="stroke:#181818;stroke-width:1.0;" x1="111.1191" x2="111.1191" y1="700.5" y2="684.5"/></g><!--MD5=[6ecc68cb4a5cac69362492d6d2163324]
reverse link galaxy_sim to utils--><g id="link_galaxy_sim_utils"><path d="M114.253,726.854 C137.862,740.658 163.75,755.796 181.989,766.46 " fill="none" id="galaxy_sim-backto-utils" style="stroke:#181818;stroke-width:1.0;"/><ellipse cx="107.9694" cy="723.1802" fill="#FFFFFF" rx="8" ry="8" style="stroke:#181818;stroke-width:1.0;"/><line style="stroke:#181818;stroke-width:1.0;" x1="114.8755" x2="101.0634" y1="727.2183" y2="719.142"/><line style="stroke:#181818;stroke-width:1.0;" x1="103.9313" x2="112.0076" y1="730.0862" y2="716.2741"/></g><!--MD5=[99e63a62fbccfcb0f44ebfa634ef0601]
reverse link galaxy_sim to view--><g id="link_galaxy_sim_view"><path d="M85.3988,731.064 C106.49,757.801 135.732,793.949 163,824.5 C168.548,830.7155 174.707,837.2281 180.589,843.2798 " fill="none" id="galaxy_sim-backto-view" style="stroke:#181818;stroke-width:1.0;"/><ellipse cx="80.9709" cy="725.4221" fill="#FFFFFF" rx="8" ry="8" style="stroke:#181818;stroke-width:1.0;"/><line style="stroke:#181818;stroke-width:1.0;" x1="85.9102" x2="76.0316" y1="731.7152" y2="719.129"/><line style="stroke:#181818;stroke-width:1.0;" x1="74.6778" x2="87.264" y1="730.3614" y2="720.4828"/></g><!--MD5=[f234462cb8bfc4e817b060645a5bf441]
reverse link physics to collisions--><g id="link_physics_collisions"><path d="M104.1253,312.068 C123.583,300.69 145.768,287.719 164.457,276.791 " fill="none" id="physics-backto-collisions" style="stroke:#181818;stroke-width:1.0;"/><ellipse cx="98.0725" cy="315.607" fill="#FFFFFF" rx="8" ry="8" style="stroke:#181818;stroke-width:1.0;"/><line style="stroke:#181818;stroke-width:1.0;" x1="104.9787" x2="91.1664" y1="311.569" y2="319.645"/><line style="stroke:#181818;stroke-width:1.0;" x1="102.1105" x2="94.0345" y1="322.5131" y2="308.7009"/></g><!--MD5=[ce84198d4906a9d331a9baad77c53b94]
reverse link physics to dynamics--><g id="link_physics_dynamics"><path d="M106.41,340.5 C124.923,340.5 145.639,340.5 163.362,340.5 " fill="none" id="physics-backto-dynamics" style="stroke:#181818;stroke-width:1.0;"/><ellipse cx="99.1664" cy="340.5" fill="#FFFFFF" rx="8" ry="8" style="stroke:#181818;stroke-width:1.0;"/><line style="stroke:#181818;stroke-width:1.0;" x1="107.1664" x2="91.1664" y1="340.5" y2="340.5"/><line style="stroke:#181818;stroke-width:1.0;" x1="99.1664" x2="99.1664" y1="348.5" y2="332.5"/></g><!--MD5=[e345656afac6978b4c5b0d0901cdfe1e]
reverse link physics to rigidbody--><g id="link_physics_rigidbody"><path d="M104.3539,369.066 C123.188,380.079 144.549,392.569 162.811,403.247 " fill="none" id="physics-backto-rigidbody" style="stroke:#181818;stroke-width:1.0;"/><ellipse cx="98.0725" cy="365.393" fill="#FFFFFF" rx="8" ry="8" style="stroke:#181818;stroke-width:1.0;"/><line style="stroke:#181818;stroke-width:1.0;" x1="104.9787" x2="91.1664" y1="369.431" y2="361.355"/><line style="stroke:#181818;stroke-width:1.0;" x1="94.0345" x2="102.1105" y1="372.2991" y2="358.4869"/></g><!--MD5=[8310004904d9ec08225353f62bba5f4a]
reverse link collisions to impact--><g id="link_collisions_impact"><path d="M250.61,215.861 C269.117,200.008 291.078,181.278 311,164.5 C317.677,158.876 324.856,152.882 331.708,147.186 " fill="none" id="collisions-backto-impact" style="stroke:#181818;stroke-width:1.0;"/><ellipse cx="245.0757" cy="220.6061" fill="#FFFFFF" rx="8" ry="8" style="stroke:#181818;stroke-width:1.0;"/><line style="stroke:#181818;stroke-width:1.0;" x1="251.1484" x2="239.003" y1="215.3982" y2="225.814"/><line style="stroke:#181818;stroke-width:1.0;" x1="250.2836" x2="239.8678" y1="226.6788" y2="214.5334"/></g><!--MD5=[d8c1d129d4343a668e0747e31056e54c]
reverse link collisions to collision--><g id="link_collisions_collision"><path d="M226.577,212.059 C244.905,174.622 275.306,118.56 311,76.5 C316.184,70.391 322.286,64.466 328.468,59.046 " fill="none" id="collisions-backto-collision" style="stroke:#181818;stroke-width:1.0;"/><ellipse cx="223.3944" cy="218.6936" fill="#FFFFFF" rx="8" ry="8" style="stroke:#181818;stroke-width:1.0;"/><line style="stroke:#181818;stroke-width:1.0;" x1="226.8559" x2="219.933" y1="211.4812" y2="225.906"/><line style="stroke:#181818;stroke-width:1.0;" x1="230.6068" x2="216.182" y1="222.155" y2="215.2322"/></g><!--MD5=[236673b842e72df716fa0cf0be29c8e9]
reverse link collisions to instances--><g id="link_collisions_instances"><path d="M264.31,236.618 C282.991,231.349 303.476,225.571 320.992,220.631 " fill="none" id="collisions-backto-instances" style="stroke:#181818;stroke-width:1.0;"/><ellipse cx="257.5047" cy="238.5376" fill="#FFFFFF" rx="8" ry="8" style="stroke:#181818;stroke-width:1.0;"/><line style="stroke:#181818;stroke-width:1.0;" x1="265.2044" x2="249.805" y1="236.3662" y2="240.709"/><line style="stroke:#181818;stroke-width:1.0;" x1="259.6761" x2="255.3333" y1="246.2373" y2="230.8379"/></g><!--MD5=[587dad76836602631bb3e7522c5b2755]
reverse link collisions to intersection--><g id="link_collisions_intersection"><path d="M264.464,268.426 C279.609,272.697 295.93,277.301 310.886,281.519 " fill="none" id="collisions-backto-intersection" style="stroke:#181818;stroke-width:1.0;"/><ellipse cx="257.5047" cy="266.4624" fill="#FFFFFF" rx="8" ry="8" style="stroke:#181818;stroke-width:1.0;"/><line style="stroke:#181818;stroke-width:1.0;" x1="265.2044" x2="249.805" y1="268.6338" y2="264.291"/><line style="stroke:#181818;stroke-width:1.0;" x1="255.3333" x2="259.6761" y1="274.1621" y2="258.7627"/></g><!--MD5=[a29256254d206dbf454f562e1fa099d2]
reverse link collisions to monads--><g id="link_collisions_monads"><path d="M250.61,289.139 C269.117,304.992 291.078,323.722 311,340.5 C317.677,346.124 324.856,352.118 331.708,357.814 " fill="none" id="collisions-backto-monads" style="stroke:#181818;stroke-width:1.0;"/><ellipse cx="245.0757" cy="284.3939" fill="#FFFFFF" rx="8" ry="8" style="stroke:#181818;stroke-width:1.0;"/><line style="stroke:#181818;stroke-width:1.0;" x1="251.1484" x2="239.003" y1="289.6018" y2="279.186"/><line style="stroke:#181818;stroke-width:1.0;" x1="239.8678" x2="250.2836" y1="290.4666" y2="278.3212"/></g><!--MD5=[48b553f773e6f505dc43083e2fef89b3]
reverse link collisions to syntax--><g id="link_collisions_syntax"><path d="M246.712,290.639 C248.216,292.575 249.654,294.533 251,296.5 C287.401,349.677 271.884,377.287 311,428.5 C316.735,436.008 323.977,443.072 331.251,449.252 " fill="none" id="collisions-backto-syntax" style="stroke:#181818;stroke-width:1.0;"/><ellipse cx="242.0729" cy="285.2177" fill="#FFFFFF" rx="8" ry="8" style="stroke:#181818;stroke-width:1.0;"/><line style="stroke:#181818;stroke-width:1.0;" x1="247.2739" x2="236.872" y1="291.2964" y2="279.139"/><line style="stroke:#181818;stroke-width:1.0;" x1="235.9943" x2="248.1516" y1="290.4186" y2="280.0167"/></g><!--MD5=[e206927bd9ee9a964d95ad89237db2ae]
@startuml
left to right direction

package galaxy_sim{}
package actors {}
package model {}
package prolog {}
package utils {}
package view {}

galaxy_sim +- - actors
galaxy_sim +- - model
galaxy_sim +- - prolog
galaxy_sim +- - utils
galaxy_sim +- - view

package physics {}
package collisions {}
package dynamics {}
package rigidbody {}
physics +- - collisions
physics +- - dynamics
physics +- - rigidbody

package collision {}
package impact {}
package instances {}
package intersection {}
package monads {}
package syntax {}

collisions +- - impact
collisions +- - collision
collisions +- - instances
collisions +- - intersection
collisions +- - monads
collisions +- - syntax
@enduml

PlantUML version 1.2022.10beta2(Unknown compile time)
(GPL source distribution)
Java Runtime: Java(TM) SE Runtime Environment
JVM: Java HotSpot(TM) 64-Bit Server VM
Default Encoding: UTF-8
Language: en
Country: US
--></g></svg>