<?xml version="1.0" encoding="UTF-8" standalone="no"?><svg xmlns="http://www.w3.org/2000/svg" xmlns:xlink="http://www.w3.org/1999/xlink" contentStyleType="text/css" height="371px" preserveAspectRatio="none" style="width:667px;height:371px;background:#FFFFFF;" version="1.1" viewBox="0 0 667 371" width="667px" zoomAndPan="magnify"><defs/><g><!--MD5=[c41d477ef21da0c9032cbf319c636951]
cluster physics.rigidbody.RigidBody--><g id="cluster_physics.rigidbody.RigidBody"><path d="M8.5,6 L234.5,6 A3.75,3.75 0 0 1 237,8.5 L244,28.2969 L244.5,28.2969 A2.5,2.5 0 0 1 247,30.7969 L247,110.5 A2.5,2.5 0 0 1 244.5,113 L8.5,113 A2.5,2.5 0 0 1 6,110.5 L6,8.5 A2.5,2.5 0 0 1 8.5,6 " fill="none" style="stroke:#000000;stroke-width:1.5;"/><line style="stroke:#000000;stroke-width:1.5;" x1="6" x2="244" y1="28.2969" y2="28.2969"/><text fill="#000000" font-family="sans-serif" font-size="14" font-weight="bold" lengthAdjust="spacing" textLength="225" x="10" y="20.9951">physics.rigidbody.RigidBody</text></g><!--MD5=[dcfd6951d4b2a697634a3c74876e73fd]
cluster galaxy_sim.model--><g id="cluster_galaxy_sim.model"><path d="M58.5,137 L200.5,137 A3.75,3.75 0 0 1 203,139.5 L210,159.2969 L657.5,159.2969 A2.5,2.5 0 0 1 660,161.7969 L660,361.5 A2.5,2.5 0 0 1 657.5,364 L58.5,364 A2.5,2.5 0 0 1 56,361.5 L56,139.5 A2.5,2.5 0 0 1 58.5,137 " fill="none" style="stroke:#000000;stroke-width:1.5;"/><line style="stroke:#000000;stroke-width:1.5;" x1="56" x2="210" y1="159.2969" y2="159.2969"/><text fill="#000000" font-family="sans-serif" font-size="14" font-weight="bold" lengthAdjust="spacing" textLength="141" x="60" y="151.9951">galaxy_sim.model</text></g><!--MD5=[04ca7948c1a7067ab15a2ea2d9841bbd]
class CircularEntity--><g id="elem_CircularEntity"><rect codeLine="5" fill="#F1F1F1" height="56.2656" id="CircularEntity" rx="2.5" ry="2.5" style="stroke:#181818;stroke-width:0.5;" width="128" x="62" y="41"/><ellipse cx="77" cy="61.1328" fill="#ADD1B2" rx="11" ry="11" style="stroke:#181818;stroke-width:1.0;"/><path d="M81.2344,56.0391 L81.2344,58.5547 Q79.9844,57.3984 79.0625,57.0234 Q78.1563,56.6484 77.125,56.6484 Q75.125,56.6484 74.0625,57.8672 Q73,59.0703 73,61.4297 Q73,63.7891 74.0625,65.0078 Q75.125,66.2109 77.125,66.2109 Q78.1563,66.2109 79.0625,65.8359 Q79.9844,65.4609 81.2344,64.3047 L81.2344,66.8047 Q80.1875,67.5078 79.1719,67.8203 Q78.1719,68.1172 77.0156,68.1172 Q74.0938,68.1172 72.3906,66.3203 Q70.7031,64.5234 70.7031,61.4297 Q70.7031,58.3359 72.3906,56.5391 Q74.0938,54.7266 77.0156,54.7266 Q78.1875,54.7266 79.1875,55.0391 Q80.2031,55.3359 81.2344,56.0391 Z " fill="#000000"/><text fill="#000000" font-family="sans-serif" font-size="12" font-style="italic" lengthAdjust="spacing" textLength="39" x="119.5" y="57.1387">«trait»</text><text fill="#000000" font-family="sans-serif" font-size="14" lengthAdjust="spacing" textLength="96" x="91" y="72.9639">CircularEntity</text><line style="stroke:#181818;stroke-width:0.5;" x1="63" x2="189" y1="81.2656" y2="81.2656"/><line style="stroke:#181818;stroke-width:0.5;" x1="63" x2="189" y1="89.2656" y2="89.2656"/></g><!--MD5=[e36a4c0f7055b067b077b74a1222e806]
class Simulation--><g id="elem_Simulation"><rect codeLine="9" fill="#F1F1F1" height="80.5938" id="Simulation" rx="2.5" ry="2.5" style="stroke:#181818;stroke-width:0.5;" width="108" x="72" y="215.5"/><ellipse cx="87" cy="231.5" fill="#ADD1B2" rx="11" ry="11" style="stroke:#181818;stroke-width:1.0;"/><path d="M91.2344,226.4063 L91.2344,228.9219 Q89.9844,227.7656 89.0625,227.3906 Q88.1563,227.0156 87.125,227.0156 Q85.125,227.0156 84.0625,228.2344 Q83,229.4375 83,231.7969 Q83,234.1563 84.0625,235.375 Q85.125,236.5781 87.125,236.5781 Q88.1563,236.5781 89.0625,236.2031 Q89.9844,235.8281 91.2344,234.6719 L91.2344,237.1719 Q90.1875,237.875 89.1719,238.1875 Q88.1719,238.4844 87.0156,238.4844 Q84.0938,238.4844 82.3906,236.6875 Q80.7031,234.8906 80.7031,231.7969 Q80.7031,228.7031 82.3906,226.9063 Q84.0938,225.0938 87.0156,225.0938 Q88.1875,225.0938 89.1875,225.4063 Q90.2031,225.7031 91.2344,226.4063 Z " fill="#000000"/><text fill="#000000" font-family="sans-serif" font-size="14" lengthAdjust="spacing" textLength="76" x="101" y="236.3467">Simulation</text><line style="stroke:#181818;stroke-width:0.5;" x1="73" x2="179" y1="247.5" y2="247.5"/><ellipse cx="83" cy="261.1484" fill="none" rx="3" ry="3" style="stroke:#038048;stroke-width:1.0;"/><text fill="#000000" font-family="sans-serif" font-size="14" lengthAdjust="spacing" textLength="72" x="92" y="264.4951">deltaTime</text><ellipse cx="83" cy="277.4453" fill="none" rx="3" ry="3" style="stroke:#038048;stroke-width:1.0;"/><text fill="#000000" font-family="sans-serif" font-size="14" lengthAdjust="spacing" textLength="81" x="92" y="280.792">virtualTime</text><line style="stroke:#181818;stroke-width:0.5;" x1="73" x2="179" y1="288.0938" y2="288.0938"/></g><!--MD5=[0349391645888f4a619a283a71ae13b2]
class CelestialBody--><g id="elem_CelestialBody"><rect codeLine="13" fill="#F1F1F1" height="48" id="CelestialBody" rx="2.5" ry="2.5" style="stroke:#181818;stroke-width:0.5;" width="129" x="291" y="172"/><ellipse cx="306" cy="188" fill="#ADD1B2" rx="11" ry="11" style="stroke:#181818;stroke-width:1.0;"/><path d="M310.2344,182.9063 L310.2344,185.4219 Q308.9844,184.2656 308.0625,183.8906 Q307.1563,183.5156 306.125,183.5156 Q304.125,183.5156 303.0625,184.7344 Q302,185.9375 302,188.2969 Q302,190.6563 303.0625,191.875 Q304.125,193.0781 306.125,193.0781 Q307.1563,193.0781 308.0625,192.7031 Q308.9844,192.3281 310.2344,191.1719 L310.2344,193.6719 Q309.1875,194.375 308.1719,194.6875 Q307.1719,194.9844 306.0156,194.9844 Q303.0938,194.9844 301.3906,193.1875 Q299.7031,191.3906 299.7031,188.2969 Q299.7031,185.2031 301.3906,183.4063 Q303.0938,181.5938 306.0156,181.5938 Q307.1875,181.5938 308.1875,181.9063 Q309.2031,182.2031 310.2344,182.9063 Z " fill="#000000"/><text fill="#000000" font-family="sans-serif" font-size="14" lengthAdjust="spacing" textLength="97" x="320" y="192.8467">CelestialBody</text><line style="stroke:#181818;stroke-width:0.5;" x1="292" x2="419" y1="204" y2="204"/><line style="stroke:#181818;stroke-width:0.5;" x1="292" x2="419" y1="212" y2="212"/></g><!--MD5=[d4eea0a2640b0744e449422abbb6da5e]
class Boundary--><g id="elem_Boundary"><rect codeLine="14" fill="#F1F1F1" height="56.2656" id="Boundary" rx="2.5" ry="2.5" style="stroke:#181818;stroke-width:0.5;" width="101" x="305" y="292"/><ellipse cx="320" cy="312.1328" fill="#ADD1B2" rx="11" ry="11" style="stroke:#181818;stroke-width:1.0;"/><path d="M324.2344,307.0391 L324.2344,309.5547 Q322.9844,308.3984 322.0625,308.0234 Q321.1563,307.6484 320.125,307.6484 Q318.125,307.6484 317.0625,308.8672 Q316,310.0703 316,312.4297 Q316,314.7891 317.0625,316.0078 Q318.125,317.2109 320.125,317.2109 Q321.1563,317.2109 322.0625,316.8359 Q322.9844,316.4609 324.2344,315.3047 L324.2344,317.8047 Q323.1875,318.5078 322.1719,318.8203 Q321.1719,319.1172 320.0156,319.1172 Q317.0938,319.1172 315.3906,317.3203 Q313.7031,315.5234 313.7031,312.4297 Q313.7031,309.3359 315.3906,307.5391 Q317.0938,305.7266 320.0156,305.7266 Q321.1875,305.7266 322.1875,306.0391 Q323.2031,306.3359 324.2344,307.0391 Z " fill="#000000"/><text fill="#000000" font-family="sans-serif" font-size="12" font-style="italic" lengthAdjust="spacing" textLength="39" x="349" y="308.1387">«trait»</text><text fill="#000000" font-family="sans-serif" font-size="14" lengthAdjust="spacing" textLength="69" x="334" y="323.9639">Boundary</text><line style="stroke:#181818;stroke-width:0.5;" x1="306" x2="405" y1="332.2656" y2="332.2656"/><line style="stroke:#181818;stroke-width:0.5;" x1="306" x2="405" y1="340.2656" y2="340.2656"/></g><!--MD5=[eb41b0c3f5bc142dc50ad5d618937648]
class CelestialBodyType--><g id="elem_CelestialBodyType"><rect codeLine="15" fill="#F1F1F1" height="48" id="CelestialBodyType" rx="2.5" ry="2.5" style="stroke:#181818;stroke-width:0.5;" width="164" x="480" y="202"/><ellipse cx="495" cy="218" fill="#EB937F" rx="11" ry="11" style="stroke:#181818;stroke-width:1.0;"/><path d="M490.6719,212.0781 L499.0313,212.0781 L499.0313,214.0156 L492.875,214.0156 L492.875,217.1563 L498.7813,217.1563 L498.7813,219.0938 L492.875,219.0938 L492.875,223.0625 L499.1875,223.0625 L499.1875,225 L490.6719,225 L490.6719,212.0781 Z " fill="#000000"/><text fill="#000000" font-family="sans-serif" font-size="14" lengthAdjust="spacing" textLength="132" x="509" y="222.8467">CelestialBodyType</text><line style="stroke:#181818;stroke-width:0.5;" x1="481" x2="643" y1="234" y2="234"/><line style="stroke:#181818;stroke-width:0.5;" x1="481" x2="643" y1="242" y2="242"/></g><!--MD5=[55299604e1b87194e9a1a1c01c081110]
reverse link CircularEntity to CelestialBody--><g id="link_CircularEntity_CelestialBody"><path d="M194.73,106.81 C232.5,127.89 278.41,153.53 311.31,171.89 " fill="none" id="CircularEntity-backto-CelestialBody" style="stroke:#181818;stroke-width:1.0;"/><polygon fill="none" points="191.26,112.89,177.21,97.03,198.08,100.66,191.26,112.89" style="stroke:#181818;stroke-width:1.0;"/></g><!--MD5=[adc0274c49ff37a4d854dc1867594035]
reverse link Simulation to CelestialBody--><g id="link_Simulation_CelestialBody"><path codeLine="18" d="M192.88,238.63 C223.71,230.49 260.28,220.85 290.83,212.79 " fill="none" id="Simulation-backto-CelestialBody" style="stroke:#181818;stroke-width:1.0;"/><polygon fill="#181818" points="180.05,242.01,186.8715,244.3483,191.6535,238.9509,184.8321,236.6126,180.05,242.01" style="stroke:#181818;stroke-width:1.0;"/><text fill="#000000" font-family="sans-serif" font-size="13" lengthAdjust="spacing" textLength="8" x="187.8505" y="236.2254">1</text><text fill="#000000" font-family="sans-serif" font-size="13" lengthAdjust="spacing" textLength="7" x="275.9478" y="227.6731">*</text></g><!--MD5=[7be961e4ac1fe5e9b3a980a12ad72a26]
reverse link Simulation to CelestialBodyType--><g id="link_Simulation_CelestialBodyType"><path codeLine="19" d="M193.54,252.36 C252.95,249 342.31,243.69 420,238 C439.36,236.58 460.19,234.9 479.75,233.24 " fill="none" id="Simulation-backto-CelestialBodyType" style="stroke:#181818;stroke-width:1.0;"/><polygon fill="#181818" points="180.22,253.11,186.4349,256.7672,192.2011,252.4371,185.9862,248.7798,180.22,253.11" style="stroke:#181818;stroke-width:1.0;"/><text fill="#000000" font-family="sans-serif" font-size="13" lengthAdjust="spacing" textLength="8" x="188.0433" y="265.8326">1</text><text fill="#000000" font-family="sans-serif" font-size="13" lengthAdjust="spacing" textLength="7" x="465.1129" y="246.6256">*</text></g><!--MD5=[b0654390dc9a73feee504eca2d733c29]
reverse link Simulation to Boundary--><g id="link_Simulation_Boundary"><path codeLine="20" d="M192.83,274.52 C228.57,284.57 272.02,296.8 304.87,306.04 " fill="none" id="Simulation-backto-Boundary" style="stroke:#181818;stroke-width:1.0;"/><polygon fill="#181818" points="180.05,270.92,184.7393,276.3982,191.5997,274.1766,186.9104,268.6984,180.05,270.92" style="stroke:#181818;stroke-width:1.0;"/><text fill="#000000" font-family="sans-serif" font-size="13" lengthAdjust="spacing" textLength="8" x="187.8505" y="286.0358">1</text><text fill="#000000" font-family="sans-serif" font-size="13" lengthAdjust="spacing" textLength="8" x="288.8462" y="317.1483">1</text></g><!--MD5=[9149c59f7f060024a9682f747fc77d8a]
link CelestialBody to CelestialBodyType--><g id="link_CelestialBody_CelestialBodyType"><path codeLine="21" d="M420.08,205.33 C438.96,208.1 459.9,211.17 479.74,214.08 " fill="none" id="CelestialBody-CelestialBodyType" style="stroke:#181818;stroke-width:1.0;"/><text fill="#000000" font-family="sans-serif" font-size="13" lengthAdjust="spacing" textLength="7" x="427.9518" y="219.3505">*</text><text fill="#000000" font-family="sans-serif" font-size="13" lengthAdjust="spacing" textLength="8" x="464.0575" y="225.7592">1</text></g><!--MD5=[76adbccf5064775700df944c267c2c7c]
@startuml

left to right direction

package physics.rigidbody.RigidBody {
  class CircularEntity << trait >>
}

package galaxy_sim.model {
  class Simulation {
    + deltaTime
    + virtualTime
  }
  class CelestialBody extends CircularEntity
  class Boundary << trait >>
  enum CelestialBodyType
}

Simulation "1"*- -"*" CelestialBody
Simulation "1"*- -"*" CelestialBodyType
Simulation "1"*- -"1" Boundary
CelestialBody "*"- -"1" CelestialBodyType

@enduml

PlantUML version 1.2022.12(Sun Oct 23 20:12:26 CEST 2022)
(GPL source distribution)
Java Runtime: OpenJDK Runtime Environment
JVM: OpenJDK 64-Bit Server VM
Default Encoding: UTF-8
Language: en
Country: US
--></g></svg>