<?xml version="1.0" encoding="UTF-8" standalone="no"?><svg xmlns="http://www.w3.org/2000/svg" xmlns:xlink="http://www.w3.org/1999/xlink" contentStyleType="text/css" height="425px" preserveAspectRatio="none" style="width:882px;height:425px;background:#FFFFFF;" version="1.1" viewBox="0 0 882 425" width="882px" zoomAndPan="magnify"><defs/><g><!--MD5=[c0d7be9562a5d946cc96fd2495168446]
class SimulationManagerActor--><g id="elem_SimulationManagerActor"><rect codeLine="2" fill="#F1F1F1" height="61.412" id="SimulationManagerActor" rx="2.5" ry="2.5" style="stroke:#181818;stroke-width:0.5;" width="200" x="307" y="7"/><ellipse cx="322" cy="29.706" fill="#ADD1B2" rx="11" ry="11" style="stroke:#181818;stroke-width:1.0;"/><path d="M322.1094,24.9873 Q321.1875,24.9873 320.4531,25.2998 Q319.7344,25.6123 319.2344,26.206 Q318.7344,26.7841 318.4531,27.6591 Q318.1875,28.5341 318.1875,29.6279 Q318.1875,31.0654 318.625,32.1123 Q319.0781,33.1591 319.9219,33.706 Q320.7813,34.2529 322.0938,34.2529 Q322.875,34.2529 323.5625,34.1279 Q324.2656,33.9873 325.2656,33.6748 L325.2656,35.5498 Q324.4063,35.8779 323.6406,36.0029 Q322.8906,36.1279 321.875,36.1279 Q319.9531,36.1279 318.6406,35.331 Q317.3438,34.5185 316.6875,33.0498 Q316.0313,31.5654 316.0313,29.5966 Q316.0313,28.1748 316.4219,27.0029 Q316.8281,25.8154 317.6094,24.9404 Q318.3906,24.0654 319.5313,23.5966 Q320.6719,23.1123 322.1406,23.1123 Q323.0938,23.1123 323.9844,23.3154 Q324.8906,23.5029 325.8281,23.9716 L325,25.7529 Q324.2188,25.3779 323.5625,25.1904 Q322.9063,24.9873 322.1094,24.9873 Z " fill="#000000"/><text fill="#000000" font-family="sans-serif" font-size="12" font-style="italic" lengthAdjust="spacing" textLength="44" x="398" y="24.8281">«object»</text><text fill="#000000" font-family="sans-serif" font-size="14" lengthAdjust="spacing" textLength="168" x="336" y="43.31">SimulationManagerActor</text><line style="stroke:#181818;stroke-width:0.5;" x1="308" x2="506" y1="52.412" y2="52.412"/><line style="stroke:#181818;stroke-width:0.5;" x1="308" x2="506" y1="60.412" y2="60.412"/></g><!--MD5=[7b2730f45515eb6715b5210522be8bff]
class SimulationManagerActorCommand--><g id="elem_SimulationManagerActorCommand"><rect codeLine="3" fill="#F1F1F1" height="61.412" id="SimulationManagerActorCommand" rx="2.5" ry="2.5" style="stroke:#181818;stroke-width:0.5;" width="254" x="280" y="128"/><ellipse cx="295" cy="150.706" fill="#B4A7E5" rx="11" ry="11" style="stroke:#181818;stroke-width:1.0;"/><path d="M297.0938,157.206 L292.1875,157.206 L292.1875,155.831 L293.6094,155.5185 L293.6094,146.2373 L292.1875,145.8935 L292.1875,144.5341 L297.0938,144.5341 L297.0938,145.8935 L295.6719,146.2373 L295.6719,155.5185 L297.0938,155.831 L297.0938,157.206 Z " fill="#000000"/><text fill="#000000" font-family="sans-serif" font-size="12" font-style="italic" lengthAdjust="spacing" textLength="35" x="402.5" y="145.8281">«trait»</text><text fill="#000000" font-family="sans-serif" font-size="14" font-style="italic" lengthAdjust="spacing" textLength="222" x="309" y="164.31">SimulationManagerActorCommand</text><line style="stroke:#181818;stroke-width:0.5;" x1="281" x2="533" y1="173.412" y2="173.412"/><line style="stroke:#181818;stroke-width:0.5;" x1="281" x2="533" y1="181.412" y2="181.412"/></g><!--MD5=[952558d6b7bf4efe5ff99a3c9afe2e58]
class StartSimulation--><g id="elem_StartSimulation"><rect codeLine="4" fill="#F1F1F1" height="61.412" id="StartSimulation" rx="2.5" ry="2.5" style="stroke:#181818;stroke-width:0.5;" width="136" x="7" y="249"/><ellipse cx="22" cy="271.706" fill="#ADD1B2" rx="11" ry="11" style="stroke:#181818;stroke-width:1.0;"/><path d="M22.1094,266.9873 Q21.1875,266.9873 20.4531,267.2998 Q19.7344,267.6123 19.2344,268.206 Q18.7344,268.7841 18.4531,269.6591 Q18.1875,270.5341 18.1875,271.6279 Q18.1875,273.0654 18.625,274.1123 Q19.0781,275.1591 19.9219,275.706 Q20.7813,276.2529 22.0938,276.2529 Q22.875,276.2529 23.5625,276.1279 Q24.2656,275.9873 25.2656,275.6748 L25.2656,277.5498 Q24.4063,277.8779 23.6406,278.0029 Q22.8906,278.1279 21.875,278.1279 Q19.9531,278.1279 18.6406,277.331 Q17.3438,276.5185 16.6875,275.0498 Q16.0313,273.5654 16.0313,271.5966 Q16.0313,270.1748 16.4219,269.0029 Q16.8281,267.8154 17.6094,266.9404 Q18.3906,266.0654 19.5313,265.5966 Q20.6719,265.1123 22.1406,265.1123 Q23.0938,265.1123 23.9844,265.3154 Q24.8906,265.5029 25.8281,265.9716 L25,267.7529 Q24.2188,267.3779 23.5625,267.1904 Q22.9063,266.9873 22.1094,266.9873 Z " fill="#000000"/><text fill="#000000" font-family="sans-serif" font-size="12" font-style="italic" lengthAdjust="spacing" textLength="44" x="66" y="266.8281">«object»</text><text fill="#000000" font-family="sans-serif" font-size="14" lengthAdjust="spacing" textLength="104" x="36" y="285.31">StartSimulation</text><line style="stroke:#181818;stroke-width:0.5;" x1="8" x2="142" y1="294.412" y2="294.412"/><line style="stroke:#181818;stroke-width:0.5;" x1="8" x2="142" y1="302.412" y2="302.412"/></g><!--MD5=[305d4c0665a7a83c0f6c5aa93726f831]
class StopSimulation--><g id="elem_StopSimulation"><rect codeLine="5" fill="#F1F1F1" height="61.412" id="StopSimulation" rx="2.5" ry="2.5" style="stroke:#181818;stroke-width:0.5;" width="134" x="178" y="249"/><ellipse cx="193" cy="271.706" fill="#ADD1B2" rx="11" ry="11" style="stroke:#181818;stroke-width:1.0;"/><path d="M193.1094,266.9873 Q192.1875,266.9873 191.4531,267.2998 Q190.7344,267.6123 190.2344,268.206 Q189.7344,268.7841 189.4531,269.6591 Q189.1875,270.5341 189.1875,271.6279 Q189.1875,273.0654 189.625,274.1123 Q190.0781,275.1591 190.9219,275.706 Q191.7813,276.2529 193.0938,276.2529 Q193.875,276.2529 194.5625,276.1279 Q195.2656,275.9873 196.2656,275.6748 L196.2656,277.5498 Q195.4063,277.8779 194.6406,278.0029 Q193.8906,278.1279 192.875,278.1279 Q190.9531,278.1279 189.6406,277.331 Q188.3438,276.5185 187.6875,275.0498 Q187.0313,273.5654 187.0313,271.5966 Q187.0313,270.1748 187.4219,269.0029 Q187.8281,267.8154 188.6094,266.9404 Q189.3906,266.0654 190.5313,265.5966 Q191.6719,265.1123 193.1406,265.1123 Q194.0938,265.1123 194.9844,265.3154 Q195.8906,265.5029 196.8281,265.9716 L196,267.7529 Q195.2188,267.3779 194.5625,267.1904 Q193.9063,266.9873 193.1094,266.9873 Z " fill="#000000"/><text fill="#000000" font-family="sans-serif" font-size="12" font-style="italic" lengthAdjust="spacing" textLength="44" x="236" y="266.8281">«object»</text><text fill="#000000" font-family="sans-serif" font-size="14" lengthAdjust="spacing" textLength="102" x="207" y="285.31">StopSimulation</text><line style="stroke:#181818;stroke-width:0.5;" x1="179" x2="311" y1="294.412" y2="294.412"/><line style="stroke:#181818;stroke-width:0.5;" x1="179" x2="311" y1="302.412" y2="302.412"/></g><!--MD5=[d10b2235e835d3cdc13d86ca04c5efed]
class IterationStep--><g id="elem_IterationStep"><rect codeLine="6" fill="#F1F1F1" height="61.412" id="IterationStep" rx="2.5" ry="2.5" style="stroke:#181818;stroke-width:0.5;" width="120" x="347" y="249"/><ellipse cx="362" cy="271.706" fill="#ADD1B2" rx="11" ry="11" style="stroke:#181818;stroke-width:1.0;"/><path d="M362.1094,266.9873 Q361.1875,266.9873 360.4531,267.2998 Q359.7344,267.6123 359.2344,268.206 Q358.7344,268.7841 358.4531,269.6591 Q358.1875,270.5341 358.1875,271.6279 Q358.1875,273.0654 358.625,274.1123 Q359.0781,275.1591 359.9219,275.706 Q360.7813,276.2529 362.0938,276.2529 Q362.875,276.2529 363.5625,276.1279 Q364.2656,275.9873 365.2656,275.6748 L365.2656,277.5498 Q364.4063,277.8779 363.6406,278.0029 Q362.8906,278.1279 361.875,278.1279 Q359.9531,278.1279 358.6406,277.331 Q357.3438,276.5185 356.6875,275.0498 Q356.0313,273.5654 356.0313,271.5966 Q356.0313,270.1748 356.4219,269.0029 Q356.8281,267.8154 357.6094,266.9404 Q358.3906,266.0654 359.5313,265.5966 Q360.6719,265.1123 362.1406,265.1123 Q363.0938,265.1123 363.9844,265.3154 Q364.8906,265.5029 365.8281,265.9716 L365,267.7529 Q364.2188,267.3779 363.5625,267.1904 Q362.9063,266.9873 362.1094,266.9873 Z " fill="#000000"/><text fill="#000000" font-family="sans-serif" font-size="12" font-style="italic" lengthAdjust="spacing" textLength="44" x="398" y="266.8281">«object»</text><text fill="#000000" font-family="sans-serif" font-size="14" lengthAdjust="spacing" textLength="88" x="376" y="285.31">IterationStep</text><line style="stroke:#181818;stroke-width:0.5;" x1="348" x2="466" y1="294.412" y2="294.412"/><line style="stroke:#181818;stroke-width:0.5;" x1="348" x2="466" y1="302.412" y2="302.412"/></g><!--MD5=[54a4fa0595ab5262e5385e3ad18862f2]
class CelestialBodyState--><g id="elem_CelestialBodyState"><rect codeLine="7" fill="#F1F1F1" height="48" id="CelestialBodyState" rx="2.5" ry="2.5" style="stroke:#181818;stroke-width:0.5;" width="156" x="502" y="255.5"/><ellipse cx="517" cy="271.5" fill="#ADD1B2" rx="11" ry="11" style="stroke:#181818;stroke-width:1.0;"/><path d="M517.1094,266.7813 Q516.1875,266.7813 515.4531,267.0938 Q514.7344,267.4063 514.2344,268 Q513.7344,268.5781 513.4531,269.4531 Q513.1875,270.3281 513.1875,271.4219 Q513.1875,272.8594 513.625,273.9063 Q514.0781,274.9531 514.9219,275.5 Q515.7813,276.0469 517.0938,276.0469 Q517.875,276.0469 518.5625,275.9219 Q519.2656,275.7813 520.2656,275.4688 L520.2656,277.3438 Q519.4063,277.6719 518.6406,277.7969 Q517.8906,277.9219 516.875,277.9219 Q514.9531,277.9219 513.6406,277.125 Q512.3438,276.3125 511.6875,274.8438 Q511.0313,273.3594 511.0313,271.3906 Q511.0313,269.9688 511.4219,268.7969 Q511.8281,267.6094 512.6094,266.7344 Q513.3906,265.8594 514.5313,265.3906 Q515.6719,264.9063 517.1406,264.9063 Q518.0938,264.9063 518.9844,265.1094 Q519.8906,265.2969 520.8281,265.7656 L520,267.5469 Q519.2188,267.1719 518.5625,266.9844 Q517.9063,266.7813 517.1094,266.7813 Z " fill="#000000"/><text fill="#000000" font-family="sans-serif" font-size="14" lengthAdjust="spacing" textLength="124" x="531" y="276.932">CelestialBodyState</text><line style="stroke:#181818;stroke-width:0.5;" x1="503" x2="657" y1="287.5" y2="287.5"/><line style="stroke:#181818;stroke-width:0.5;" x1="503" x2="657" y1="295.5" y2="295.5"/></g><!--MD5=[4f9c18ad5fa549f29cfa1534c23d21c5]
class AskSimulationState--><g id="elem_AskSimulationState"><rect codeLine="8" fill="#F1F1F1" height="48" id="AskSimulationState" rx="2.5" ry="2.5" style="stroke:#181818;stroke-width:0.5;" width="161" x="693.5" y="255.5"/><ellipse cx="708.5" cy="271.5" fill="#ADD1B2" rx="11" ry="11" style="stroke:#181818;stroke-width:1.0;"/><path d="M708.6094,266.7813 Q707.6875,266.7813 706.9531,267.0938 Q706.2344,267.4063 705.7344,268 Q705.2344,268.5781 704.9531,269.4531 Q704.6875,270.3281 704.6875,271.4219 Q704.6875,272.8594 705.125,273.9063 Q705.5781,274.9531 706.4219,275.5 Q707.2813,276.0469 708.5938,276.0469 Q709.375,276.0469 710.0625,275.9219 Q710.7656,275.7813 711.7656,275.4688 L711.7656,277.3438 Q710.9063,277.6719 710.1406,277.7969 Q709.3906,277.9219 708.375,277.9219 Q706.4531,277.9219 705.1406,277.125 Q703.8438,276.3125 703.1875,274.8438 Q702.5313,273.3594 702.5313,271.3906 Q702.5313,269.9688 702.9219,268.7969 Q703.3281,267.6094 704.1094,266.7344 Q704.8906,265.8594 706.0313,265.3906 Q707.1719,264.9063 708.6406,264.9063 Q709.5938,264.9063 710.4844,265.1094 Q711.3906,265.2969 712.3281,265.7656 L711.5,267.5469 Q710.7188,267.1719 710.0625,266.9844 Q709.4063,266.7813 708.6094,266.7813 Z " fill="#000000"/><text fill="#000000" font-family="sans-serif" font-size="14" lengthAdjust="spacing" textLength="129" x="722.5" y="276.932">AskSimulationState</text><line style="stroke:#181818;stroke-width:0.5;" x1="694.5" x2="853.5" y1="287.5" y2="287.5"/><line style="stroke:#181818;stroke-width:0.5;" x1="694.5" x2="853.5" y1="295.5" y2="295.5"/></g><!--MD5=[3bf712854df45db8a5d399a64825ae7c]
class SimulationStateResponse--><g id="elem_SimulationStateResponse"><rect codeLine="9" fill="#F1F1F1" height="48" id="SimulationStateResponse" rx="2.5" ry="2.5" style="stroke:#181818;stroke-width:0.5;" width="203" x="672.5" y="370"/><ellipse cx="687.5" cy="386" fill="#ADD1B2" rx="11" ry="11" style="stroke:#181818;stroke-width:1.0;"/><path d="M687.6094,381.2813 Q686.6875,381.2813 685.9531,381.5938 Q685.2344,381.9063 684.7344,382.5 Q684.2344,383.0781 683.9531,383.9531 Q683.6875,384.8281 683.6875,385.9219 Q683.6875,387.3594 684.125,388.4063 Q684.5781,389.4531 685.4219,390 Q686.2813,390.5469 687.5938,390.5469 Q688.375,390.5469 689.0625,390.4219 Q689.7656,390.2813 690.7656,389.9688 L690.7656,391.8438 Q689.9063,392.1719 689.1406,392.2969 Q688.3906,392.4219 687.375,392.4219 Q685.4531,392.4219 684.1406,391.625 Q682.8438,390.8125 682.1875,389.3438 Q681.5313,387.8594 681.5313,385.8906 Q681.5313,384.4688 681.9219,383.2969 Q682.3281,382.1094 683.1094,381.2344 Q683.8906,380.3594 685.0313,379.8906 Q686.1719,379.4063 687.6406,379.4063 Q688.5938,379.4063 689.4844,379.6094 Q690.3906,379.7969 691.3281,380.2656 L690.5,382.0469 Q689.7188,381.6719 689.0625,381.4844 Q688.4063,381.2813 687.6094,381.2813 Z " fill="#000000"/><text fill="#000000" font-family="sans-serif" font-size="14" lengthAdjust="spacing" textLength="171" x="701.5" y="391.432">SimulationStateResponse</text><line style="stroke:#181818;stroke-width:0.5;" x1="673.5" x2="874.5" y1="402" y2="402"/><line style="stroke:#181818;stroke-width:0.5;" x1="673.5" x2="874.5" y1="410" y2="410"/></g><!--MD5=[001737bae6866968909350066b9144b2]
reverse link SimulationManagerActorCommand to StartSimulation--><g id="link_SimulationManagerActorCommand_StartSimulation"><path d="M305.61,195.84 C252.91,214.73 189.91,237.31 143.09,254.09 " fill="none" id="SimulationManagerActorCommand-backto-StartSimulation" style="stroke:#181818;stroke-width:1.0;"/><polygon fill="none" points="303.32,189.23,324.51,189.07,308.04,202.41,303.32,189.23" style="stroke:#181818;stroke-width:1.0;"/></g><!--MD5=[1cc60f3c62c4fa35768a7cba92493da1]
reverse link SimulationManagerActorCommand to StopSimulation--><g id="link_SimulationManagerActorCommand_StopSimulation"><path d="M350.35,201.11 C328.88,216.89 304.89,234.51 285.23,248.95 " fill="none" id="SimulationManagerActorCommand-backto-StopSimulation" style="stroke:#181818;stroke-width:1.0;"/><polygon fill="none" points="346.28,195.42,366.54,189.22,354.56,206.7,346.28,195.42" style="stroke:#181818;stroke-width:1.0;"/></g><!--MD5=[6d1e6bfc08aff8db5370b10935196528]
reverse link SimulationManagerActorCommand to IterationStep--><g id="link_SimulationManagerActorCommand_IterationStep"><path d="M407,209.33 C407,222.73 407,236.81 407,248.74 " fill="none" id="SimulationManagerActorCommand-backto-IterationStep" style="stroke:#181818;stroke-width:1.0;"/><polygon fill="none" points="400,209.22,407,189.22,414,209.22,400,209.22" style="stroke:#181818;stroke-width:1.0;"/></g><!--MD5=[280065a2d62ef20b45cb62b8aadbd61b]
reverse link SimulationManagerActorCommand to CelestialBodyState--><g id="link_SimulationManagerActorCommand_CelestialBodyState"><path d="M467.06,200.81 C493.7,219.14 524.04,240.01 546.56,255.5 " fill="none" id="SimulationManagerActorCommand-backto-CelestialBodyState" style="stroke:#181818;stroke-width:1.0;"/><polygon fill="none" points="462.72,206.32,450.21,189.22,470.65,194.79,462.72,206.32" style="stroke:#181818;stroke-width:1.0;"/></g><!--MD5=[ab9fd69c085ca5d62292e8757b353217]
reverse link SimulationManagerActorCommand to AskSimulationState--><g id="link_SimulationManagerActorCommand_AskSimulationState"><path d="M517.25,195.25 C577.44,214.76 650.21,238.36 702.88,255.44 " fill="none" id="SimulationManagerActorCommand-backto-AskSimulationState" style="stroke:#181818;stroke-width:1.0;"/><polygon fill="none" points="515.06,201.9,498.19,189.07,519.37,188.58,515.06,201.9" style="stroke:#181818;stroke-width:1.0;"/></g><!--MD5=[96b2792b572537a0db2eaa193c9791dc]
link SimulationManagerActor to SimulationManagerActorCommand--><g id="link_SimulationManagerActor_SimulationManagerActorCommand"><path codeLine="11" d="M407,68.22 C407,84.69 407,105.26 407,122.51 " fill="none" id="SimulationManagerActor-to-SimulationManagerActorCommand" style="stroke:#181818;stroke-width:1.0;stroke-dasharray:7.0,7.0;"/><polygon fill="#181818" points="407,127.74,411,118.74,407,122.74,403,118.74,407,127.74" style="stroke:#181818;stroke-width:1.0;"/></g><!--MD5=[93ff4c0e6a9fd2daf84ca9fde7d7517a]
link AskSimulationState to SimulationStateResponse--><g id="link_AskSimulationState_SimulationStateResponse"><path codeLine="12" d="M774,303.54 C774,321.28 774,345.9 774,364.82 " fill="none" id="AskSimulationState-to-SimulationStateResponse" style="stroke:#181818;stroke-width:1.0;stroke-dasharray:7.0,7.0;"/><polygon fill="#181818" points="774,369.99,778,360.99,774,364.99,770,360.99,774,369.99" style="stroke:#181818;stroke-width:1.0;"/></g><!--MD5=[3b5c911cf10d3b0cec150d19a1f52c6d]
@startuml

class SimulationManagerActor << object >>
interface SimulationManagerActorCommand << trait >>
class StartSimulation << object >> extends SimulationManagerActorCommand
class StopSimulation << object >> extends SimulationManagerActorCommand
class IterationStep << object >> extends SimulationManagerActorCommand
class CelestialBodyState extends SimulationManagerActorCommand
class AskSimulationState extends SimulationManagerActorCommand
class SimulationStateResponse

SimulationManagerActor ..> SimulationManagerActorCommand
AskSimulationState ..> SimulationStateResponse

@enduml

PlantUML version 1.2022.12(Sun Oct 23 20:12:26 CEST 2022)
(GPL source distribution)
Java Runtime: OpenJDK Runtime Environment
JVM: OpenJDK 64-Bit Server VM
Default Encoding: UTF-8
Language: en
Country: US
--></g></svg>