<?xml version="1.0" encoding="UTF-8" standalone="no"?><svg xmlns="http://www.w3.org/2000/svg" xmlns:xlink="http://www.w3.org/1999/xlink" contentStyleType="text/css" height="527px" preserveAspectRatio="none" style="width:614px;height:527px;background:#FFFFFF;" version="1.1" viewBox="0 0 614 527" width="614px" zoomAndPan="magnify"><defs/><g><!--MD5=[6016b25235c3d762f2fa022dcd5cc380]
cluster galaxy_sim.actors--><g id="cluster_galaxy_sim.actors"><path d="M17.5,6 L158.5,6 A3.75,3.75 0 0 1 161,8.5 L168,28.2969 L456.5,28.2969 A2.5,2.5 0 0 1 459,30.7969 L459,110.5 A2.5,2.5 0 0 1 456.5,113 L17.5,113 A2.5,2.5 0 0 1 15,110.5 L15,8.5 A2.5,2.5 0 0 1 17.5,6 " fill="none" style="stroke:#000000;stroke-width:1.5;"/><line style="stroke:#000000;stroke-width:1.5;" x1="15" x2="168" y1="28.2969" y2="28.2969"/><text fill="#000000" font-family="sans-serif" font-size="14" font-weight="bold" lengthAdjust="spacing" textLength="140" x="19" y="20.9951">galaxy_sim.actors</text></g><!--MD5=[c41d477ef21da0c9032cbf319c636951]
cluster physics.rigidbody.RigidBody--><g id="cluster_physics.rigidbody.RigidBody"><path d="M368.5,174.5 L594.5,174.5 A3.75,3.75 0 0 1 597,177 L604,196.7969 L604.5,196.7969 A2.5,2.5 0 0 1 607,199.2969 L607,279 A2.5,2.5 0 0 1 604.5,281.5 L368.5,281.5 A2.5,2.5 0 0 1 366,279 L366,177 A2.5,2.5 0 0 1 368.5,174.5 " fill="none" style="stroke:#000000;stroke-width:1.5;"/><line style="stroke:#000000;stroke-width:1.5;" x1="366" x2="604" y1="196.7969" y2="196.7969"/><text fill="#000000" font-family="sans-serif" font-size="14" font-weight="bold" lengthAdjust="spacing" textLength="225" x="370" y="189.4951">physics.rigidbody.RigidBody</text></g><!--MD5=[dcfd6951d4b2a697634a3c74876e73fd]
cluster galaxy_sim.model--><g id="cluster_galaxy_sim.model"><path d="M8.5,162 L150.5,162 A3.75,3.75 0 0 1 153,164.5 L160,184.2969 L339.5,184.2969 A2.5,2.5 0 0 1 342,186.7969 L342,517.5 A2.5,2.5 0 0 1 339.5,520 L8.5,520 A2.5,2.5 0 0 1 6,517.5 L6,164.5 A2.5,2.5 0 0 1 8.5,162 " fill="none" style="stroke:#000000;stroke-width:1.5;"/><line style="stroke:#000000;stroke-width:1.5;" x1="6" x2="160" y1="184.2969" y2="184.2969"/><text fill="#000000" font-family="sans-serif" font-size="14" font-weight="bold" lengthAdjust="spacing" textLength="141" x="10" y="176.9951">galaxy_sim.model</text></g><!--MD5=[d150a8672f0dcefe428e42c10ccabcfb]
class CelestialBodyActor--><g id="elem_CelestialBodyActor"><rect codeLine="3" fill="#F1F1F1" height="56.2656" id="CelestialBodyActor" rx="2.5" ry="2.5" style="stroke:#181818;stroke-width:0.5;" width="167" x="275.5" y="41"/><ellipse cx="290.5" cy="61.1328" fill="#ADD1B2" rx="11" ry="11" style="stroke:#181818;stroke-width:1.0;"/><path d="M294.7344,56.0391 L294.7344,58.5547 Q293.4844,57.3984 292.5625,57.0234 Q291.6563,56.6484 290.625,56.6484 Q288.625,56.6484 287.5625,57.8672 Q286.5,59.0703 286.5,61.4297 Q286.5,63.7891 287.5625,65.0078 Q288.625,66.2109 290.625,66.2109 Q291.6563,66.2109 292.5625,65.8359 Q293.4844,65.4609 294.7344,64.3047 L294.7344,66.8047 Q293.6875,67.5078 292.6719,67.8203 Q291.6719,68.1172 290.5156,68.1172 Q287.5938,68.1172 285.8906,66.3203 Q284.2031,64.5234 284.2031,61.4297 Q284.2031,58.3359 285.8906,56.5391 Q287.5938,54.7266 290.5156,54.7266 Q291.6875,54.7266 292.6875,55.0391 Q293.7031,55.3359 294.7344,56.0391 Z " fill="#000000"/><text fill="#000000" font-family="sans-serif" font-size="12" font-style="italic" lengthAdjust="spacing" textLength="51" x="346.5" y="57.1387">«object»</text><text fill="#000000" font-family="sans-serif" font-size="14" lengthAdjust="spacing" textLength="135" x="304.5" y="72.9639">CelestialBodyActor</text><line style="stroke:#181818;stroke-width:0.5;" x1="276.5" x2="441.5" y1="81.2656" y2="81.2656"/><line style="stroke:#181818;stroke-width:0.5;" x1="276.5" x2="441.5" y1="89.2656" y2="89.2656"/></g><!--MD5=[c0d7be9562a5d946cc96fd2495168446]
class SimulationManagerActor--><g id="elem_SimulationManagerActor"><rect codeLine="4" fill="#F1F1F1" height="56.2656" id="SimulationManagerActor" rx="2.5" ry="2.5" style="stroke:#181818;stroke-width:0.5;" width="209" x="31.5" y="41"/><ellipse cx="46.5" cy="61.1328" fill="#ADD1B2" rx="11" ry="11" style="stroke:#181818;stroke-width:1.0;"/><path d="M50.7344,56.0391 L50.7344,58.5547 Q49.4844,57.3984 48.5625,57.0234 Q47.6563,56.6484 46.625,56.6484 Q44.625,56.6484 43.5625,57.8672 Q42.5,59.0703 42.5,61.4297 Q42.5,63.7891 43.5625,65.0078 Q44.625,66.2109 46.625,66.2109 Q47.6563,66.2109 48.5625,65.8359 Q49.4844,65.4609 50.7344,64.3047 L50.7344,66.8047 Q49.6875,67.5078 48.6719,67.8203 Q47.6719,68.1172 46.5156,68.1172 Q43.5938,68.1172 41.8906,66.3203 Q40.2031,64.5234 40.2031,61.4297 Q40.2031,58.3359 41.8906,56.5391 Q43.5938,54.7266 46.5156,54.7266 Q47.6875,54.7266 48.6875,55.0391 Q49.7031,55.3359 50.7344,56.0391 Z " fill="#000000"/><text fill="#000000" font-family="sans-serif" font-size="12" font-style="italic" lengthAdjust="spacing" textLength="51" x="123.5" y="57.1387">«object»</text><text fill="#000000" font-family="sans-serif" font-size="14" lengthAdjust="spacing" textLength="177" x="60.5" y="72.9639">SimulationManagerActor</text><line style="stroke:#181818;stroke-width:0.5;" x1="32.5" x2="239.5" y1="81.2656" y2="81.2656"/><line style="stroke:#181818;stroke-width:0.5;" x1="32.5" x2="239.5" y1="89.2656" y2="89.2656"/></g><!--MD5=[04ca7948c1a7067ab15a2ea2d9841bbd]
class CircularEntity--><g id="elem_CircularEntity"><rect codeLine="8" fill="#F1F1F1" height="56.2656" id="CircularEntity" rx="2.5" ry="2.5" style="stroke:#181818;stroke-width:0.5;" width="128" x="382" y="209.5"/><ellipse cx="397" cy="229.6328" fill="#ADD1B2" rx="11" ry="11" style="stroke:#181818;stroke-width:1.0;"/><path d="M401.2344,224.5391 L401.2344,227.0547 Q399.9844,225.8984 399.0625,225.5234 Q398.1563,225.1484 397.125,225.1484 Q395.125,225.1484 394.0625,226.3672 Q393,227.5703 393,229.9297 Q393,232.2891 394.0625,233.5078 Q395.125,234.7109 397.125,234.7109 Q398.1563,234.7109 399.0625,234.3359 Q399.9844,233.9609 401.2344,232.8047 L401.2344,235.3047 Q400.1875,236.0078 399.1719,236.3203 Q398.1719,236.6172 397.0156,236.6172 Q394.0938,236.6172 392.3906,234.8203 Q390.7031,233.0234 390.7031,229.9297 Q390.7031,226.8359 392.3906,225.0391 Q394.0938,223.2266 397.0156,223.2266 Q398.1875,223.2266 399.1875,223.5391 Q400.2031,223.8359 401.2344,224.5391 Z " fill="#000000"/><text fill="#000000" font-family="sans-serif" font-size="12" font-style="italic" lengthAdjust="spacing" textLength="39" x="439.5" y="225.6387">«trait»</text><text fill="#000000" font-family="sans-serif" font-size="14" lengthAdjust="spacing" textLength="96" x="411" y="241.4639">CircularEntity</text><line style="stroke:#181818;stroke-width:0.5;" x1="383" x2="509" y1="249.7656" y2="249.7656"/><line style="stroke:#181818;stroke-width:0.5;" x1="383" x2="509" y1="257.7656" y2="257.7656"/></g><!--MD5=[e36a4c0f7055b067b077b74a1222e806]
class Simulation--><g id="elem_Simulation"><rect codeLine="12" fill="#F1F1F1" height="80.5938" id="Simulation" rx="2.5" ry="2.5" style="stroke:#181818;stroke-width:0.5;" width="108" x="92" y="197"/><ellipse cx="107" cy="213" fill="#ADD1B2" rx="11" ry="11" style="stroke:#181818;stroke-width:1.0;"/><path d="M111.2344,207.9063 L111.2344,210.4219 Q109.9844,209.2656 109.0625,208.8906 Q108.1563,208.5156 107.125,208.5156 Q105.125,208.5156 104.0625,209.7344 Q103,210.9375 103,213.2969 Q103,215.6563 104.0625,216.875 Q105.125,218.0781 107.125,218.0781 Q108.1563,218.0781 109.0625,217.7031 Q109.9844,217.3281 111.2344,216.1719 L111.2344,218.6719 Q110.1875,219.375 109.1719,219.6875 Q108.1719,219.9844 107.0156,219.9844 Q104.0938,219.9844 102.3906,218.1875 Q100.7031,216.3906 100.7031,213.2969 Q100.7031,210.2031 102.3906,208.4063 Q104.0938,206.5938 107.0156,206.5938 Q108.1875,206.5938 109.1875,206.9063 Q110.2031,207.2031 111.2344,207.9063 Z " fill="#000000"/><text fill="#000000" font-family="sans-serif" font-size="14" lengthAdjust="spacing" textLength="76" x="121" y="217.8467">Simulation</text><line style="stroke:#181818;stroke-width:0.5;" x1="93" x2="199" y1="229" y2="229"/><ellipse cx="103" cy="242.6484" fill="none" rx="3" ry="3" style="stroke:#038048;stroke-width:1.0;"/><text fill="#000000" font-family="sans-serif" font-size="14" lengthAdjust="spacing" textLength="72" x="112" y="245.9951">deltaTime</text><ellipse cx="103" cy="258.9453" fill="none" rx="3" ry="3" style="stroke:#038048;stroke-width:1.0;"/><text fill="#000000" font-family="sans-serif" font-size="14" lengthAdjust="spacing" textLength="81" x="112" y="262.292">virtualTime</text><line style="stroke:#181818;stroke-width:0.5;" x1="93" x2="199" y1="269.5938" y2="269.5938"/></g><!--MD5=[0349391645888f4a619a283a71ae13b2]
class CelestialBody--><g id="elem_CelestialBody"><rect codeLine="16" fill="#F1F1F1" height="48" id="CelestialBody" rx="2.5" ry="2.5" style="stroke:#181818;stroke-width:0.5;" width="129" x="196.5" y="343"/><ellipse cx="211.5" cy="359" fill="#ADD1B2" rx="11" ry="11" style="stroke:#181818;stroke-width:1.0;"/><path d="M215.7344,353.9063 L215.7344,356.4219 Q214.4844,355.2656 213.5625,354.8906 Q212.6563,354.5156 211.625,354.5156 Q209.625,354.5156 208.5625,355.7344 Q207.5,356.9375 207.5,359.2969 Q207.5,361.6563 208.5625,362.875 Q209.625,364.0781 211.625,364.0781 Q212.6563,364.0781 213.5625,363.7031 Q214.4844,363.3281 215.7344,362.1719 L215.7344,364.6719 Q214.6875,365.375 213.6719,365.6875 Q212.6719,365.9844 211.5156,365.9844 Q208.5938,365.9844 206.8906,364.1875 Q205.2031,362.3906 205.2031,359.2969 Q205.2031,356.2031 206.8906,354.4063 Q208.5938,352.5938 211.5156,352.5938 Q212.6875,352.5938 213.6875,352.9063 Q214.7031,353.2031 215.7344,353.9063 Z " fill="#000000"/><text fill="#000000" font-family="sans-serif" font-size="14" lengthAdjust="spacing" textLength="97" x="225.5" y="363.8467">CelestialBody</text><line style="stroke:#181818;stroke-width:0.5;" x1="197.5" x2="324.5" y1="375" y2="375"/><line style="stroke:#181818;stroke-width:0.5;" x1="197.5" x2="324.5" y1="383" y2="383"/></g><!--MD5=[d4eea0a2640b0744e449422abbb6da5e]
class Boundary--><g id="elem_Boundary"><rect codeLine="17" fill="#F1F1F1" height="56.2656" id="Boundary" rx="2.5" ry="2.5" style="stroke:#181818;stroke-width:0.5;" width="101" x="22.5" y="339"/><ellipse cx="37.5" cy="359.1328" fill="#ADD1B2" rx="11" ry="11" style="stroke:#181818;stroke-width:1.0;"/><path d="M41.7344,354.0391 L41.7344,356.5547 Q40.4844,355.3984 39.5625,355.0234 Q38.6563,354.6484 37.625,354.6484 Q35.625,354.6484 34.5625,355.8672 Q33.5,357.0703 33.5,359.4297 Q33.5,361.7891 34.5625,363.0078 Q35.625,364.2109 37.625,364.2109 Q38.6563,364.2109 39.5625,363.8359 Q40.4844,363.4609 41.7344,362.3047 L41.7344,364.8047 Q40.6875,365.5078 39.6719,365.8203 Q38.6719,366.1172 37.5156,366.1172 Q34.5938,366.1172 32.8906,364.3203 Q31.2031,362.5234 31.2031,359.4297 Q31.2031,356.3359 32.8906,354.5391 Q34.5938,352.7266 37.5156,352.7266 Q38.6875,352.7266 39.6875,353.0391 Q40.7031,353.3359 41.7344,354.0391 Z " fill="#000000"/><text fill="#000000" font-family="sans-serif" font-size="12" font-style="italic" lengthAdjust="spacing" textLength="39" x="66.5" y="355.1387">«trait»</text><text fill="#000000" font-family="sans-serif" font-size="14" lengthAdjust="spacing" textLength="69" x="51.5" y="370.9639">Boundary</text><line style="stroke:#181818;stroke-width:0.5;" x1="23.5" x2="122.5" y1="379.2656" y2="379.2656"/><line style="stroke:#181818;stroke-width:0.5;" x1="23.5" x2="122.5" y1="387.2656" y2="387.2656"/></g><!--MD5=[eb41b0c3f5bc142dc50ad5d618937648]
class CelestialBodyType--><g id="elem_CelestialBodyType"><rect codeLine="18" fill="#F1F1F1" height="48" id="CelestialBodyType" rx="2.5" ry="2.5" style="stroke:#181818;stroke-width:0.5;" width="164" x="101" y="456"/><ellipse cx="116" cy="472" fill="#EB937F" rx="11" ry="11" style="stroke:#181818;stroke-width:1.0;"/><path d="M111.6719,466.0781 L120.0313,466.0781 L120.0313,468.0156 L113.875,468.0156 L113.875,471.1563 L119.7813,471.1563 L119.7813,473.0938 L113.875,473.0938 L113.875,477.0625 L120.1875,477.0625 L120.1875,479 L111.6719,479 L111.6719,466.0781 Z " fill="#000000"/><text fill="#000000" font-family="sans-serif" font-size="14" lengthAdjust="spacing" textLength="132" x="130" y="476.8467">CelestialBodyType</text><line style="stroke:#181818;stroke-width:0.5;" x1="102" x2="264" y1="488" y2="488"/><line style="stroke:#181818;stroke-width:0.5;" x1="102" x2="264" y1="496" y2="496"/></g><!--MD5=[55299604e1b87194e9a1a1c01c081110]
reverse link CircularEntity to CelestialBody--><g id="link_CircularEntity_CelestialBody"><path d="M390.24,276.93 C359.07,298.41 321.25,324.48 294.6,342.85 " fill="none" id="CircularEntity-backto-CelestialBody" style="stroke:#181818;stroke-width:1.0;"/><polygon fill="none" points="386.33,271.13,406.77,265.54,394.27,282.65,386.33,271.13" style="stroke:#181818;stroke-width:1.0;"/></g><!--MD5=[adc0274c49ff37a4d854dc1867594035]
reverse link Simulation to CelestialBody--><g id="link_Simulation_CelestialBody"><path codeLine="21" d="M190.49,287.82 C207.52,306.71 226.17,327.39 240.01,342.73 " fill="none" id="Simulation-backto-CelestialBody" style="stroke:#181818;stroke-width:1.0;"/><polygon fill="#181818" points="181.76,278.14,182.8041,285.2751,189.7919,287.0556,188.7478,279.9205,181.76,278.14" style="stroke:#181818;stroke-width:1.0;"/><text fill="#000000" font-family="sans-serif" font-size="13" lengthAdjust="spacing" textLength="8" x="178.6232" y="297.6196">1</text><text fill="#000000" font-family="sans-serif" font-size="13" lengthAdjust="spacing" textLength="7" x="227.0406" y="332.0691">*</text></g><!--MD5=[7be961e4ac1fe5e9b3a980a12ad72a26]
reverse link Simulation to CelestialBodyType--><g id="link_Simulation_CelestialBodyType"><path codeLine="22" d="M154.13,291.36 C162.03,342.73 173.66,418.32 179.45,455.95 " fill="none" id="Simulation-backto-CelestialBodyType" style="stroke:#181818;stroke-width:1.0;"/><polygon fill="#181818" points="152.11,278.21,149.0667,284.7474,153.9307,290.0711,156.9741,283.5336,152.11,278.21" style="stroke:#181818;stroke-width:1.0;"/><text fill="#000000" font-family="sans-serif" font-size="13" lengthAdjust="spacing" textLength="8" x="144.4331" y="297.7003">1</text><text fill="#000000" font-family="sans-serif" font-size="13" lengthAdjust="spacing" textLength="7" x="170.6434" y="444.9492">*</text></g><!--MD5=[b0654390dc9a73feee504eca2d733c29]
reverse link Simulation to Boundary--><g id="link_Simulation_Boundary"><path codeLine="23" d="M116.76,289.57 C107.1,306.44 96.73,324.55 88.52,338.9 " fill="none" id="Simulation-backto-Boundary" style="stroke:#181818;stroke-width:1.0;"/><polygon fill="#181818" points="123.3,278.14,116.8454,281.3552,117.3307,288.55,123.7854,285.3347,123.3,278.14" style="stroke:#181818;stroke-width:1.0;"/><text fill="#000000" font-family="sans-serif" font-size="13" lengthAdjust="spacing" textLength="8" x="111.2116" y="297.6196">1</text><text fill="#000000" font-family="sans-serif" font-size="13" lengthAdjust="spacing" textLength="8" x="83.184" y="327.719">1</text></g><!--MD5=[9149c59f7f060024a9682f747fc77d8a]
link CelestialBody to CelestialBodyType--><g id="link_CelestialBody_CelestialBodyType"><path codeLine="24" d="M244.65,391.27 C231.34,410.21 212.64,436.83 199.33,455.76 " fill="none" id="CelestialBody-CelestialBodyType" style="stroke:#181818;stroke-width:1.0;"/><text fill="#000000" font-family="sans-serif" font-size="13" lengthAdjust="spacing" textLength="7" x="232.8116" y="411.097">*</text><text fill="#000000" font-family="sans-serif" font-size="13" lengthAdjust="spacing" textLength="8" x="194.3354" y="445.1065">1</text></g><!--MD5=[7c0fb23ac79bc4bf1ed6d6da17fe0a1d]
link CelestialBodyActor to CelestialBody--><g id="link_CelestialBodyActor_CelestialBody"><path codeLine="26" d="M350.04,97.05 C331.51,153.02 289.13,281.04 270.31,337.89 " fill="none" id="CelestialBodyActor-to-CelestialBody" style="stroke:#181818;stroke-width:1.0;"/><polygon fill="#181818" points="268.67,342.84,275.2976,335.5548,270.2426,338.0937,267.7036,333.0387,268.67,342.84" style="stroke:#181818;stroke-width:1.0;"/><text fill="#000000" font-family="sans-serif" font-size="13" lengthAdjust="spacing" textLength="23" x="331" y="242.0669">use</text><text fill="#000000" font-family="sans-serif" font-size="13" lengthAdjust="spacing" textLength="8" x="339.043" y="117.3225">1</text><text fill="#000000" font-family="sans-serif" font-size="13" lengthAdjust="spacing" textLength="8" x="261.6104" y="331.811">1</text></g><!--MD5=[bddaa596ebdfa6d18565d9fcab65e3d9]
link SimulationManagerActor to Simulation--><g id="link_SimulationManagerActor_Simulation"><path codeLine="27" d="M137.63,97.12 C139.17,122.73 141.5,161.61 143.32,191.8 " fill="none" id="SimulationManagerActor-to-Simulation" style="stroke:#181818;stroke-width:1.0;"/><polygon fill="#181818" points="143.62,196.95,147.0722,187.726,143.3197,191.959,139.0867,188.2065,143.62,196.95" style="stroke:#181818;stroke-width:1.0;"/><text fill="#000000" font-family="sans-serif" font-size="13" lengthAdjust="spacing" textLength="23" x="141" y="142.0669">use</text><text fill="#000000" font-family="sans-serif" font-size="13" lengthAdjust="spacing" textLength="8" x="129.0819" y="117.4087">1</text><text fill="#000000" font-family="sans-serif" font-size="13" lengthAdjust="spacing" textLength="8" x="134.5234" y="185.8046">1</text></g><!--MD5=[8795ca112ae2193184321d0002913c06]
@startuml

package galaxy_sim.actors{
  class CelestialBodyActor << object >>
  class SimulationManagerActor << object >>
}

package physics.rigidbody.RigidBody {
  class CircularEntity << trait >>
}

package galaxy_sim.model {
  class Simulation {
    + deltaTime
    + virtualTime
  }
  class CelestialBody extends CircularEntity
  class Boundary << trait >>
  enum CelestialBodyType
}

Simulation "1"*- -"*" CelestialBody
Simulation "1"*- -"*" CelestialBodyType
Simulation "1"*- -"1" Boundary
CelestialBody "*"- -"1" CelestialBodyType

CelestialBodyActor "1"- ->"1" CelestialBody: use
SimulationManagerActor "1"- ->"1" Simulation: use

@enduml

PlantUML version 1.2022.12(Sun Oct 23 20:12:26 CEST 2022)
(GPL source distribution)
Java Runtime: OpenJDK Runtime Environment
JVM: OpenJDK 64-Bit Server VM
Default Encoding: UTF-8
Language: en
Country: US
--></g></svg>