<?xml version="1.0" encoding="UTF-8" standalone="no"?><svg xmlns="http://www.w3.org/2000/svg" xmlns:xlink="http://www.w3.org/1999/xlink" contentStyleType="text/css" height="317px" preserveAspectRatio="none" style="width:397px;height:317px;background:#FFFFFF;" version="1.1" viewBox="0 0 397 317" width="397px" zoomAndPan="magnify"><defs/><g><!--MD5=[c0b63fc4a3fcfad45391963a5f65a156]
class ViewActor--><g id="elem_ViewActor"><rect codeLine="2" fill="#F1F1F1" height="61.412" id="ViewActor" rx="2.5" ry="2.5" style="stroke:#181818;stroke-width:0.5;" width="98" x="132.5" y="7"/><ellipse cx="147.5" cy="29.706" fill="#ADD1B2" rx="11" ry="11" style="stroke:#181818;stroke-width:1.0;"/><path d="M147.6094,24.9873 Q146.6875,24.9873 145.9531,25.2998 Q145.2344,25.6123 144.7344,26.206 Q144.2344,26.7841 143.9531,27.6591 Q143.6875,28.5341 143.6875,29.6279 Q143.6875,31.0654 144.125,32.1123 Q144.5781,33.1591 145.4219,33.706 Q146.2813,34.2529 147.5938,34.2529 Q148.375,34.2529 149.0625,34.1279 Q149.7656,33.9873 150.7656,33.6748 L150.7656,35.5498 Q149.9063,35.8779 149.1406,36.0029 Q148.3906,36.1279 147.375,36.1279 Q145.4531,36.1279 144.1406,35.331 Q142.8438,34.5185 142.1875,33.0498 Q141.5313,31.5654 141.5313,29.5966 Q141.5313,28.1748 141.9219,27.0029 Q142.3281,25.8154 143.1094,24.9404 Q143.8906,24.0654 145.0313,23.5966 Q146.1719,23.1123 147.6406,23.1123 Q148.5938,23.1123 149.4844,23.3154 Q150.3906,23.5029 151.3281,23.9716 L150.5,25.7529 Q149.7188,25.3779 149.0625,25.1904 Q148.4063,24.9873 147.6094,24.9873 Z " fill="#000000"/><text fill="#000000" font-family="sans-serif" font-size="12" font-style="italic" lengthAdjust="spacing" textLength="44" x="172.5" y="24.8281">«object»</text><text fill="#000000" font-family="sans-serif" font-size="14" lengthAdjust="spacing" textLength="66" x="161.5" y="43.31">ViewActor</text><line style="stroke:#181818;stroke-width:0.5;" x1="133.5" x2="229.5" y1="52.412" y2="52.412"/><line style="stroke:#181818;stroke-width:0.5;" x1="133.5" x2="229.5" y1="60.412" y2="60.412"/></g><!--MD5=[4e4e72e0ef29f5bed22cd15f6258c70d]
class ViewActorCommand--><g id="elem_ViewActorCommand"><rect codeLine="3" fill="#F1F1F1" height="61.412" id="ViewActorCommand" rx="2.5" ry="2.5" style="stroke:#181818;stroke-width:0.5;" width="158" x="102.5" y="128"/><ellipse cx="117.5" cy="150.706" fill="#B4A7E5" rx="11" ry="11" style="stroke:#181818;stroke-width:1.0;"/><path d="M119.5938,157.206 L114.6875,157.206 L114.6875,155.831 L116.1094,155.5185 L116.1094,146.2373 L114.6875,145.8935 L114.6875,144.5341 L119.5938,144.5341 L119.5938,145.8935 L118.1719,146.2373 L118.1719,155.5185 L119.5938,155.831 L119.5938,157.206 Z " fill="#000000"/><text fill="#000000" font-family="sans-serif" font-size="12" font-style="italic" lengthAdjust="spacing" textLength="35" x="177" y="145.8281">«trait»</text><text fill="#000000" font-family="sans-serif" font-size="14" font-style="italic" lengthAdjust="spacing" textLength="126" x="131.5" y="164.31">ViewActorCommand</text><line style="stroke:#181818;stroke-width:0.5;" x1="103.5" x2="259.5" y1="173.412" y2="173.412"/><line style="stroke:#181818;stroke-width:0.5;" x1="103.5" x2="259.5" y1="181.412" y2="181.412"/></g><!--MD5=[292033ffe4750640675b59034298e578]
class Display--><g id="elem_Display"><rect codeLine="4" fill="#F1F1F1" height="48" id="Display" rx="2.5" ry="2.5" style="stroke:#181818;stroke-width:0.5;" width="81" x="7" y="255.5"/><ellipse cx="22" cy="271.5" fill="#ADD1B2" rx="11" ry="11" style="stroke:#181818;stroke-width:1.0;"/><path d="M22.1094,266.7813 Q21.1875,266.7813 20.4531,267.0938 Q19.7344,267.4063 19.2344,268 Q18.7344,268.5781 18.4531,269.4531 Q18.1875,270.3281 18.1875,271.4219 Q18.1875,272.8594 18.625,273.9063 Q19.0781,274.9531 19.9219,275.5 Q20.7813,276.0469 22.0938,276.0469 Q22.875,276.0469 23.5625,275.9219 Q24.2656,275.7813 25.2656,275.4688 L25.2656,277.3438 Q24.4063,277.6719 23.6406,277.7969 Q22.8906,277.9219 21.875,277.9219 Q19.9531,277.9219 18.6406,277.125 Q17.3438,276.3125 16.6875,274.8438 Q16.0313,273.3594 16.0313,271.3906 Q16.0313,269.9688 16.4219,268.7969 Q16.8281,267.6094 17.6094,266.7344 Q18.3906,265.8594 19.5313,265.3906 Q20.6719,264.9063 22.1406,264.9063 Q23.0938,264.9063 23.9844,265.1094 Q24.8906,265.2969 25.8281,265.7656 L25,267.5469 Q24.2188,267.1719 23.5625,266.9844 Q22.9063,266.7813 22.1094,266.7813 Z " fill="#000000"/><text fill="#000000" font-family="sans-serif" font-size="14" lengthAdjust="spacing" textLength="49" x="36" y="276.932">Display</text><line style="stroke:#181818;stroke-width:0.5;" x1="8" x2="87" y1="287.5" y2="287.5"/><line style="stroke:#181818;stroke-width:0.5;" x1="8" x2="87" y1="295.5" y2="295.5"/></g><!--MD5=[d9b9398339b39b80483e3737c7709d5b]
class StartPressed--><g id="elem_StartPressed"><rect codeLine="5" fill="#F1F1F1" height="61.412" id="StartPressed" rx="2.5" ry="2.5" style="stroke:#181818;stroke-width:0.5;" width="117" x="123" y="249"/><ellipse cx="138" cy="271.706" fill="#ADD1B2" rx="11" ry="11" style="stroke:#181818;stroke-width:1.0;"/><path d="M138.1094,266.9873 Q137.1875,266.9873 136.4531,267.2998 Q135.7344,267.6123 135.2344,268.206 Q134.7344,268.7841 134.4531,269.6591 Q134.1875,270.5341 134.1875,271.6279 Q134.1875,273.0654 134.625,274.1123 Q135.0781,275.1591 135.9219,275.706 Q136.7813,276.2529 138.0938,276.2529 Q138.875,276.2529 139.5625,276.1279 Q140.2656,275.9873 141.2656,275.6748 L141.2656,277.5498 Q140.4063,277.8779 139.6406,278.0029 Q138.8906,278.1279 137.875,278.1279 Q135.9531,278.1279 134.6406,277.331 Q133.3438,276.5185 132.6875,275.0498 Q132.0313,273.5654 132.0313,271.5966 Q132.0313,270.1748 132.4219,269.0029 Q132.8281,267.8154 133.6094,266.9404 Q134.3906,266.0654 135.5313,265.5966 Q136.6719,265.1123 138.1406,265.1123 Q139.0938,265.1123 139.9844,265.3154 Q140.8906,265.5029 141.8281,265.9716 L141,267.7529 Q140.2188,267.3779 139.5625,267.1904 Q138.9063,266.9873 138.1094,266.9873 Z " fill="#000000"/><text fill="#000000" font-family="sans-serif" font-size="12" font-style="italic" lengthAdjust="spacing" textLength="44" x="172.5" y="266.8281">«object»</text><text fill="#000000" font-family="sans-serif" font-size="14" lengthAdjust="spacing" textLength="85" x="152" y="285.31">StartPressed</text><line style="stroke:#181818;stroke-width:0.5;" x1="124" x2="239" y1="294.412" y2="294.412"/><line style="stroke:#181818;stroke-width:0.5;" x1="124" x2="239" y1="302.412" y2="302.412"/></g><!--MD5=[1b63f34bfdfd6694d27628ad20417988]
class StopPressed--><g id="elem_StopPressed"><rect codeLine="6" fill="#F1F1F1" height="61.412" id="StopPressed" rx="2.5" ry="2.5" style="stroke:#181818;stroke-width:0.5;" width="115" x="275" y="249"/><ellipse cx="290" cy="271.706" fill="#ADD1B2" rx="11" ry="11" style="stroke:#181818;stroke-width:1.0;"/><path d="M290.1094,266.9873 Q289.1875,266.9873 288.4531,267.2998 Q287.7344,267.6123 287.2344,268.206 Q286.7344,268.7841 286.4531,269.6591 Q286.1875,270.5341 286.1875,271.6279 Q286.1875,273.0654 286.625,274.1123 Q287.0781,275.1591 287.9219,275.706 Q288.7813,276.2529 290.0938,276.2529 Q290.875,276.2529 291.5625,276.1279 Q292.2656,275.9873 293.2656,275.6748 L293.2656,277.5498 Q292.4063,277.8779 291.6406,278.0029 Q290.8906,278.1279 289.875,278.1279 Q287.9531,278.1279 286.6406,277.331 Q285.3438,276.5185 284.6875,275.0498 Q284.0313,273.5654 284.0313,271.5966 Q284.0313,270.1748 284.4219,269.0029 Q284.8281,267.8154 285.6094,266.9404 Q286.3906,266.0654 287.5313,265.5966 Q288.6719,265.1123 290.1406,265.1123 Q291.0938,265.1123 291.9844,265.3154 Q292.8906,265.5029 293.8281,265.9716 L293,267.7529 Q292.2188,267.3779 291.5625,267.1904 Q290.9063,266.9873 290.1094,266.9873 Z " fill="#000000"/><text fill="#000000" font-family="sans-serif" font-size="12" font-style="italic" lengthAdjust="spacing" textLength="44" x="323.5" y="266.8281">«object»</text><text fill="#000000" font-family="sans-serif" font-size="14" lengthAdjust="spacing" textLength="83" x="304" y="285.31">StopPressed</text><line style="stroke:#181818;stroke-width:0.5;" x1="276" x2="389" y1="294.412" y2="294.412"/><line style="stroke:#181818;stroke-width:0.5;" x1="276" x2="389" y1="302.412" y2="302.412"/></g><!--MD5=[87a020715660c6c29da613ad8456e85b]
reverse link ViewActorCommand to Display--><g id="link_ViewActorCommand_Display"><path d="M132.91,202.65 C112.78,220.52 90.26,240.52 73.4,255.5 " fill="none" id="ViewActorCommand-backto-Display" style="stroke:#181818;stroke-width:1.0;"/><polygon fill="none" points="128.43,197.27,148.03,189.22,137.73,207.74,128.43,197.27" style="stroke:#181818;stroke-width:1.0;"/></g><!--MD5=[36beba233d0a9be798773f9019ab453a]
reverse link ViewActorCommand to StartPressed--><g id="link_ViewActorCommand_StartPressed"><path d="M181.5,209.33 C181.5,222.73 181.5,236.81 181.5,248.74 " fill="none" id="ViewActorCommand-backto-StartPressed" style="stroke:#181818;stroke-width:1.0;"/><polygon fill="none" points="174.5,209.22,181.5,189.22,188.5,209.22,174.5,209.22" style="stroke:#181818;stroke-width:1.0;"/></g><!--MD5=[e0901846cee6186f5c219a292adf54d9]
reverse link ViewActorCommand to StopPressed--><g id="link_ViewActorCommand_StopPressed"><path d="M235.19,201.81 C254.98,217.41 276.95,234.72 295.01,248.95 " fill="none" id="ViewActorCommand-backto-StopPressed" style="stroke:#181818;stroke-width:1.0;"/><polygon fill="none" points="230.59,207.1,219.21,189.22,239.26,196.1,230.59,207.1" style="stroke:#181818;stroke-width:1.0;"/></g><!--MD5=[c034f89de1b54242c831aa0a1319f4d1]
link ViewActor to ViewActorCommand--><g id="link_ViewActor_ViewActorCommand"><path codeLine="7" d="M181.5,68.22 C181.5,84.69 181.5,105.26 181.5,122.51 " fill="none" id="ViewActor-to-ViewActorCommand" style="stroke:#181818;stroke-width:1.0;stroke-dasharray:7.0,7.0;"/><polygon fill="#181818" points="181.5,127.74,185.5,118.74,181.5,122.74,177.5,118.74,181.5,127.74" style="stroke:#181818;stroke-width:1.0;"/></g><!--MD5=[de38998dd8bf403c627c6da586fafbda]
@startuml

class ViewActor << object >>
interface ViewActorCommand << trait >>
class Display extends ViewActorCommand
class StartPressed << object >> extends ViewActorCommand
class StopPressed << object >> extends ViewActorCommand
ViewActor ..> ViewActorCommand

@enduml

PlantUML version 1.2022.12(Sun Oct 23 20:12:26 CEST 2022)
(GPL source distribution)
Java Runtime: OpenJDK Runtime Environment
JVM: OpenJDK 64-Bit Server VM
Default Encoding: UTF-8
Language: en
Country: US
--></g></svg>